happy-times-NG_bold_master.ufo
<glyph name="quotedbl" format="1">
  <advance width="264"/>
  <unicode hex="0022"/>
  <outline>
    <contour>
      <point x="92" y="750" type="line"/>
      <point x="54" y="750" type="line"/>
      <point x="54" y="510" type="line"/>
      <point x="92" y="510" type="line"/>
    </contour>
    <contour>
      <point x="210" y="750" type="line"/>
      <point x="172" y="750" type="line"/>
      <point x="172" y="510" type="line"/>
      <point x="210" y="510" type="line"/>
    </contour>
  </outline>
</glyph>
<glyph name="numbersign" format="1">
  <advance width="548"/>
  <unicode hex="0023"/>
  <outline>
    <contour>
      <point x="154" y="0" type="line"/>
      <point x="192" y="0" type="line"/>
      <point x="192" y="750" type="line"/>
      <point x="154" y="750" type="line"/>
    </contour>
    <contour>
      <point x="356" y="0" type="line"/>
      <point x="394" y="0" type="line"/>
      <point x="394" y="750" type="line"/>
      <point x="356" y="750" type="line"/>
    </contour>
    <contour>
      <point x="34" y="500" type="line"/>
      <point x="34" y="466" type="line"/>
      <point x="514" y="466" type="line"/>
      <point x="514" y="500" type="line"/>
    </contour>
    <contour>
      <point x="34" y="284" type="line"/>
      <point x="34" y="250" type="line"/>
      <point x="514" y="250" type="line"/>
      <point x="514" y="284" type="line"/>
    </contour>
  </outline>
</glyph>
<glyph name="percent" format="1">
  <advance width="648"/>
  <unicode hex="0025"/>
  <outline>
    <contour>
      <point x="113" y="0" type="line"/>
      <point x="157" y="0" type="line"/>
      <point x="532" y="750" type="line"/>
      <point x="488" y="750" type="line"/>
    </contour>
    <contour>
      <point x="34" y="520" type="curve" smooth="yes"/>
      <point x="34" y="420"/>
      <point x="79" y="370"/>
      <point x="146" y="370" type="curve"/>
      <point x="238" y="370"/>
      <point x="304" y="480"/>
      <point x="304" y="594" type="curve" smooth="yes"/>
      <point x="304" y="644"/>
      <point x="289" y="682"/>
      <point x="270" y="706" type="curve"/>
      <point x="280" y="716" type="line"/>
      <point x="456" y="716" type="line"/>
      <point x="488" y="716" type="line"/>
      <point x="488" y="750" type="line"/>
      <point x="215" y="750" type="line" smooth="yes"/>
      <point x="102" y="750"/>
      <point x="34" y="628"/>
    </contour>
    <contour>
      <point x="198" y="712" type="curve" smooth="yes"/>
      <point x="238" y="712"/>
      <point x="264" y="676"/>
      <point x="264" y="602" type="curve" smooth="yes"/>
      <point x="264" y="492"/>
      <point x="214" y="404"/>
      <point x="156" y="404" type="curve" smooth="yes"/>
      <point x="116" y="404"/>
      <point x="90" y="440"/>
      <point x="90" y="514" type="curve" smooth="yes"/>
      <point x="90" y="624"/>
      <point x="140" y="712"/>
    </contour>
    <contour>
      <point x="505" y="380" type="curve"/>
      <point x="413" y="380"/>
      <point x="344" y="258"/>
      <point x="344" y="150" type="curve"/>
      <point x="344" y="50"/>
      <point x="389" y="-10"/>
      <point x="456" y="-10" type="curve"/>
      <point x="551" y="-10"/>
      <point x="614" y="100"/>
      <point x="614" y="214" type="curve"/>
      <point x="614" y="306"/>
      <point x="579" y="380"/>
    </contour>
    <contour>
      <point x="505" y="342" type="curve"/>
      <point x="551" y="342"/>
      <point x="574" y="296"/>
      <point x="574" y="222" type="curve"/>
      <point x="574" y="112"/>
      <point x="524" y="24"/>
      <point x="468" y="24" type="curve"/>
      <point x="425" y="24"/>
      <point x="400" y="70"/>
      <point x="400" y="144" type="curve"/>
      <point x="400" y="254"/>
      <point x="450" y="342"/>
    </contour>
    <contour>
      <point x="196.0" y="748.0" type="move" name="top"/>
    </contour>
    <contour>
      <point x="196.0" y="369.0" type="move" name="bottom"/>
    </contour>
  </outline>
</glyph>
<glyph name="ampersand" format="1">
  <advance width="785"/>
  <unicode hex="0026"/>
  <outline>
    <contour>
      <point x="590" y="-10" type="curve"/>
      <point x="682" y="-10"/>
      <point x="739" y="46"/>
      <point x="771" y="122" type="curve"/>
      <point x="743" y="150" type="line"/>
      <point x="720" y="86"/>
      <point x="692" y="60"/>
      <point x="644" y="60" type="curve"/>
      <point x="582" y="60"/>
      <point x="551" y="97"/>
      <point x="422" y="292" type="curve" smooth="yes"/>
      <point x="344" y="410"/>
      <point x="302" y="489"/>
      <point x="302" y="574" type="curve"/>
      <point x="302" y="658"/>
      <point x="334" y="710"/>
      <point x="386" y="710" type="curve" smooth="yes"/>
      <point x="432" y="710"/>
      <point x="462" y="683"/>
      <point x="462" y="632" type="curve"/>
      <point x="462" y="519"/>
      <point x="315" y="463"/>
      <point x="222" y="415" type="curve" smooth="yes"/>
      <point x="170" y="388"/>
      <point x="34" y="314"/>
      <point x="34" y="168" type="curve"/>
      <point x="34" y="58"/>
      <point x="109" y="-10"/>
      <point x="234" y="-10" type="curve"/>
      <point x="460" y="-10"/>
      <point x="568" y="216"/>
      <point x="628" y="432" type="curve"/>
      <point x="638" y="442" type="line"/>
      <point x="744" y="442" type="line"/>
      <point x="744" y="476" type="line"/>
      <point x="493" y="476" type="line"/>
      <point x="493" y="442" type="line"/>
      <point x="573" y="442" type="line"/>
      <point x="583" y="432" type="line"/>
      <point x="538" y="235"/>
      <point x="442" y="76"/>
      <point x="317" y="76" type="curve"/>
      <point x="230" y="76"/>
      <point x="178" y="129"/>
      <point x="178" y="214" type="curve"/>
      <point x="178" y="302"/>
      <point x="209" y="365"/>
      <point x="280" y="399" type="curve" smooth="yes"/>
      <point x="330" y="423"/>
      <point x="518" y="500"/>
      <point x="518" y="638" type="curve"/>
      <point x="518" y="725"/>
      <point x="449" y="760"/>
      <point x="376" y="760" type="curve" smooth="yes"/>
      <point x="256" y="760"/>
      <point x="176" y="667"/>
      <point x="176" y="542" type="curve"/>
      <point x="176" y="450"/>
      <point x="216" y="358"/>
      <point x="302" y="234" type="curve" smooth="yes"/>
      <point x="384" y="116" type="line" smooth="yes"/>
      <point x="457" y="12"/>
      <point x="508" y="-10"/>
    </contour>
  </outline>
</glyph>
<glyph name="quotesingle" format="1">
  <advance width="146"/>
  <unicode hex="0027"/>
  <outline>
    <contour>
      <point x="92" y="750" type="line"/>
      <point x="54" y="750" type="line"/>
      <point x="54" y="510" type="line"/>
      <point x="92" y="510" type="line"/>
    </contour>
  </outline>
</glyph>
<glyph name="asterisk" format="1">
  <advance width="351"/>
  <unicode hex="002A"/>
  <outline>
    <contour>
      <point x="34" y="540" type="line"/>
      <point x="50" y="510" type="line"/>
      <point x="149" y="570" type="line"/>
      <point x="159" y="560" type="line"/>
      <point x="159" y="448" type="line"/>
      <point x="193" y="448" type="line"/>
      <point x="193" y="560" type="line"/>
      <point x="203" y="570" type="line"/>
      <point x="301" y="509" type="line"/>
      <point x="317" y="539" type="line"/>
      <point x="224" y="598" type="line"/>
      <point x="224" y="610" type="line"/>
      <point x="317" y="669" type="line"/>
      <point x="301" y="699" type="line"/>
      <point x="203" y="638" type="line"/>
      <point x="193" y="648" type="line"/>
      <point x="193" y="760" type="line"/>
      <point x="159" y="760" type="line"/>
      <point x="159" y="648" type="line"/>
      <point x="149" y="638" type="line"/>
      <point x="50" y="698" type="line"/>
      <point x="34" y="668" type="line"/>
      <point x="129" y="610" type="line"/>
      <point x="129" y="598" type="line"/>
    </contour>
  </outline>
</glyph>
<glyph name="hyphen" format="1">
  <advance width="268"/>
  <unicode hex="002D"/>
  <outline>
    <contour>
      <point x="14" y="238" type="line"/>
      <point x="254" y="238" type="line"/>
      <point x="254" y="272" type="line"/>
      <point x="14" y="272" type="line"/>
    </contour>
  </outline>
</glyph>
<glyph name="period" format="1">
  <advance width="268"/>
  <unicode hex="002E"/>
  <outline>
    <contour>
      <point x="64" y="0" type="line"/>
      <point x="204" y="0" type="line"/>
      <point x="204" y="140" type="line"/>
      <point x="64" y="140" type="line"/>
    </contour>
  </outline>
</glyph>
<glyph name="one" format="1">
  <advance width="452"/>
  <unicode hex="0031"/>
  <outline>
    <contour>
      <point x="70" y="631" type="line"/>
      <point x="158" y="665" type="line"/>
      <point x="168" y="655" type="line"/>
      <point x="168" y="0" type="line"/>
      <point x="298" y="0" type="line"/>
      <point x="298" y="750" type="line"/>
      <point x="288" y="760" type="line"/>
      <point x="54" y="665" type="line"/>
    </contour>
    <contour>
      <point x="168" y="44" type="line"/>
      <point x="158" y="34" type="line"/>
      <point x="68" y="34" type="line"/>
      <point x="68" y="0" type="line"/>
      <point x="398" y="0" type="line"/>
      <point x="398" y="34" type="line"/>
      <point x="308" y="34" type="line"/>
      <point x="298" y="44" type="line"/>
    </contour>
  </outline>
</glyph>
<glyph name="two" format="1">
  <advance width="502"/>
  <unicode hex="0032"/>
  <outline>
    <contour>
      <point x="14" y="0" type="line"/>
      <point x="448" y="0" type="line"/>
      <point x="448" y="248" type="line"/>
      <point x="416" y="248" type="line"/>
      <point x="416" y="228" type="line" smooth="yes"/>
      <point x="416" y="142"/>
      <point x="389" y="124"/>
      <point x="312" y="124" type="curve" smooth="yes"/>
      <point x="182" y="124" type="line"/>
      <point x="172" y="134" type="line"/>
      <point x="312" y="262"/>
      <point x="426" y="395"/>
      <point x="426" y="562" type="curve"/>
      <point x="426" y="676"/>
      <point x="364" y="760"/>
      <point x="232" y="760" type="curve"/>
      <point x="82" y="760"/>
      <point x="27" y="612"/>
      <point x="20" y="550" type="curve"/>
      <point x="42" y="534" type="line"/>
      <point x="62" y="590"/>
      <point x="100" y="636"/>
      <point x="176" y="636" type="curve"/>
      <point x="276" y="636"/>
      <point x="312" y="566"/>
      <point x="312" y="480" type="curve"/>
      <point x="312" y="344"/>
      <point x="219" y="220"/>
      <point x="14" y="10" type="curve"/>
    </contour>
    <contour>
      <point x="235.0" y="216.0" type="move" name="top"/>
    </contour>
    <contour>
      <point x="235.0" y="749.0" type="move" name="bottom"/>
    </contour>
  </outline>
</glyph>
<glyph name="three" format="1">
  <advance width="482"/>
  <unicode hex="0033"/>
  <outline>
    <contour>
      <point x="438" y="250" type="curve"/>
      <point x="438" y="358"/>
      <point x="376" y="428"/>
      <point x="306" y="440" type="curve"/>
      <point x="306" y="450" type="line"/>
      <point x="362" y="484"/>
      <point x="410" y="529"/>
      <point x="410" y="612" type="curve"/>
      <point x="410" y="700"/>
      <point x="348" y="760"/>
      <point x="250" y="760" type="curve"/>
      <point x="108" y="760"/>
      <point x="52" y="636"/>
      <point x="38" y="572" type="curve"/>
      <point x="60" y="556" type="line"/>
      <point x="78" y="608"/>
      <point x="114" y="658"/>
      <point x="192" y="658" type="curve"/>
      <point x="266" y="658"/>
      <point x="306" y="608"/>
      <point x="306" y="548" type="curve"/>
      <point x="306" y="465"/>
      <point x="248" y="424"/>
      <point x="154" y="414" type="curve"/>
      <point x="154" y="380" type="line"/>
      <point x="250" y="380"/>
      <point x="328" y="306"/>
      <point x="328" y="190" type="curve"/>
      <point x="328" y="98"/>
      <point x="290" y="46"/>
      <point x="232" y="46" type="curve"/>
      <point x="208" y="46"/>
      <point x="184" y="56"/>
      <point x="152" y="91" type="curve" smooth="yes"/>
      <point x="102" y="145" type="line"/>
      <point x="14" y="67" type="line"/>
      <point x="14" y="51" type="line"/>
      <point x="46" y="12"/>
      <point x="94" y="-10"/>
      <point x="166" y="-10" type="curve"/>
      <point x="322" y="-10"/>
      <point x="438" y="105"/>
    </contour>
    <contour>
      <point x="222" y="216" type="move" name="top"/>
    </contour>
    <contour>
      <point x="222" y="749" type="move" name="bottom"/>
    </contour>
  </outline>
</glyph>
<glyph name="four" format="1">
  <advance width="518"/>
  <unicode hex="0034"/>
  <outline>
    <contour>
      <point x="82" y="280" type="line"/>
      <point x="82" y="290" type="line"/>
      <point x="270" y="548" type="line"/>
      <point x="280" y="548" type="line"/>
      <point x="280" y="0" type="line"/>
      <point x="400" y="0" type="line"/>
      <point x="400" y="750" type="line"/>
      <point x="360.0" y="750.0" type="line"/>
      <point x="14" y="280" type="line"/>
    </contour>
    <contour>
      <point x="14" y="186" type="line"/>
      <point x="504" y="186" type="line"/>
      <point x="504" y="280" type="line"/>
      <point x="14" y="280" type="line"/>
    </contour>
  </outline>
</glyph>
<glyph name="five" format="1">
  <advance width="506"/>
  <unicode hex="0035"/>
  <outline>
    <contour>
      <point x="236" y="46" type="curve"/>
      <point x="208" y="46"/>
      <point x="194" y="57"/>
      <point x="172" y="81" type="curve" smooth="yes"/>
      <point x="122" y="135" type="line"/>
      <point x="34" y="67" type="line"/>
      <point x="34" y="51" type="line"/>
      <point x="60" y="20"/>
      <point x="104" y="-10"/>
      <point x="186" y="-10" type="curve"/>
      <point x="342" y="-10"/>
      <point x="458" y="115"/>
      <point x="458" y="260" type="curve"/>
      <point x="458" y="440"/>
      <point x="322" y="524"/>
      <point x="176" y="540" type="curve"/>
      <point x="166" y="550" type="line"/>
      <point x="204" y="636" type="line"/>
      <point x="418" y="636" type="line"/>
      <point x="472" y="750" type="line"/>
      <point x="208" y="750" type="line"/>
      <point x="70" y="450" type="line"/>
      <point x="80" y="440" type="line"/>
      <point x="226" y="440"/>
      <point x="352" y="350"/>
      <point x="352" y="190" type="curve"/>
      <point x="352" y="108"/>
      <point x="304" y="46"/>
    </contour>
  </outline>
</glyph>
<glyph name="six" format="1">
  <advance width="532"/>
  <unicode hex="0036"/>
  <outline>
    <contour>
      <point x="268" y="-10" type="curve" smooth="yes"/>
      <point x="413" y="-10"/>
      <point x="490" y="104"/>
      <point x="490" y="246" type="curve"/>
      <point x="490" y="410"/>
      <point x="398" y="480"/>
      <point x="316" y="480" type="curve"/>
      <point x="268" y="480"/>
      <point x="234" y="458"/>
      <point x="218" y="438" type="curve"/>
      <point x="182" y="438" type="line"/>
      <point x="182" y="362" type="line"/>
      <point x="194" y="384"/>
      <point x="214" y="416"/>
      <point x="252" y="416" type="curve" smooth="yes"/>
      <point x="312" y="416"/>
      <point x="344" y="356"/>
      <point x="344" y="222" type="curve" smooth="yes"/>
      <point x="344" y="116"/>
      <point x="332" y="28"/>
      <point x="274" y="28" type="curve"/>
      <point x="216" y="28"/>
      <point x="190" y="120"/>
      <point x="190" y="280" type="curve" smooth="yes"/>
      <point x="190" y="541"/>
      <point x="316" y="710"/>
      <point x="498" y="740" type="curve"/>
      <point x="484" y="770" type="line"/>
      <point x="254" y="750"/>
      <point x="44" y="564"/>
      <point x="44" y="286" type="curve" smooth="yes"/>
      <point x="44" y="90"/>
      <point x="143" y="-10"/>
    </contour>
  </outline>
</glyph>
<glyph name="seven" format="1">
  <advance width="508"/>
  <unicode hex="0037"/>
  <outline>
    <contour>
      <point x="204" y="636" type="curve" smooth="yes"/>
      <point x="414" y="636" type="line"/>
      <point x="424" y="626" type="line"/>
      <point x="100" y="0" type="line"/>
      <point x="260" y="0" type="line"/>
      <point x="494" y="740" type="line"/>
      <point x="484" y="750" type="line"/>
      <point x="34" y="750" type="line"/>
      <point x="34" y="500" type="line"/>
      <point x="72" y="500" type="line"/>
      <point x="72" y="538" type="line"/>
      <point x="72" y="626"/>
      <point x="100" y="636"/>
    </contour>
  </outline>
</glyph>
<glyph name="eight" format="1">
  <advance width="496"/>
  <unicode hex="0038"/>
  <outline>
    <contour>
      <point x="170" y="614" type="curve" smooth="yes"/>
      <point x="170" y="676"/>
      <point x="206" y="722"/>
      <point x="266" y="722" type="curve"/>
      <point x="334" y="722"/>
      <point x="362" y="666"/>
      <point x="362" y="604" type="curve" smooth="yes"/>
      <point x="362" y="510"/>
      <point x="320" y="466"/>
      <point x="264" y="428" type="curve"/>
      <point x="312" y="428" type="line"/>
      <point x="218" y="492"/>
      <point x="170" y="532"/>
    </contour>
    <contour>
      <point x="34" y="158" type="curve" smooth="yes"/>
      <point x="34" y="52"/>
      <point x="116" y="-10"/>
      <point x="238" y="-10" type="curve" smooth="yes"/>
      <point x="388" y="-10"/>
      <point x="462" y="88"/>
      <point x="462" y="188" type="curve"/>
      <point x="462" y="306"/>
      <point x="400" y="360"/>
      <point x="322" y="418" type="curve"/>
      <point x="322" y="428" type="line"/>
      <point x="362" y="448"/>
      <point x="440" y="504"/>
      <point x="440" y="598" type="curve" smooth="yes"/>
      <point x="440" y="700"/>
      <point x="360" y="760"/>
      <point x="260" y="760" type="curve"/>
      <point x="144" y="760"/>
      <point x="52" y="686"/>
      <point x="52" y="560" type="curve" smooth="yes"/>
      <point x="52" y="456"/>
      <point x="108" y="404"/>
      <point x="157" y="362" type="curve"/>
      <point x="157" y="352" type="line"/>
      <point x="100" y="320"/>
      <point x="34" y="252"/>
    </contour>
    <contour>
      <point x="234" y="28" type="curve"/>
      <point x="160" y="28"/>
      <point x="120" y="74"/>
      <point x="120" y="168" type="curve"/>
      <point x="120" y="260"/>
      <point x="162" y="308"/>
      <point x="214" y="352" type="curve"/>
      <point x="166" y="352" type="line"/>
      <point x="280" y="278"/>
      <point x="344" y="228"/>
      <point x="344" y="134" type="curve"/>
      <point x="344" y="66"/>
      <point x="302" y="28"/>
    </contour>
  </outline>
</glyph>
<glyph name="nine" format="1">
  <advance width="532"/>
  <unicode hex="0039"/>
  <outline>
    <contour>
      <point x="264" y="760" type="curve" smooth="yes"/>
      <point x="119" y="760"/>
      <point x="42" y="646"/>
      <point x="42" y="504" type="curve"/>
      <point x="42" y="350"/>
      <point x="140" y="286"/>
      <point x="218" y="286" type="curve"/>
      <point x="270" y="286"/>
      <point x="300" y="306"/>
      <point x="314" y="316" type="curve"/>
      <point x="344" y="316" type="line"/>
      <point x="344" y="378" type="line"/>
      <point x="334" y="359"/>
      <point x="310" y="338"/>
      <point x="272" y="338" type="curve"/>
      <point x="210" y="338"/>
      <point x="188" y="424"/>
      <point x="188" y="568" type="curve" smooth="yes"/>
      <point x="188" y="654"/>
      <point x="208" y="722"/>
      <point x="256" y="722" type="curve"/>
      <point x="320" y="722"/>
      <point x="342" y="620"/>
      <point x="342" y="470" type="curve" smooth="yes"/>
      <point x="342" y="209"/>
      <point x="216" y="40"/>
      <point x="34" y="10" type="curve"/>
      <point x="48" y="-20" type="line"/>
      <point x="278" y="0"/>
      <point x="488" y="186"/>
      <point x="488" y="464" type="curve" smooth="yes"/>
      <point x="488" y="660"/>
      <point x="389" y="760"/>
    </contour>
  </outline>
</glyph>
<glyph name="colon" format="1">
  <advance width="268"/>
  <unicode hex="003A"/>
  <outline>
    <contour>
      <point x="64" y="0" type="line"/>
      <point x="204" y="0" type="line"/>
      <point x="204" y="140" type="line"/>
      <point x="64" y="140" type="line"/>
    </contour>
    <contour>
      <point x="64" y="370" type="line"/>
      <point x="204" y="370" type="line"/>
      <point x="204" y="510" type="line"/>
      <point x="64" y="510" type="line"/>
    </contour>
  </outline>
</glyph>
<glyph name="less" format="1">
  <advance width="514"/>
  <unicode hex="003C"/>
  <outline>
    <contour>
      <point x="480" y="52" type="line"/>
      <point x="480" y="94" type="line"/>
      <point x="90" y="307" type="line"/>
      <point x="90" y="317" type="line"/>
      <point x="480" y="530" type="line"/>
      <point x="480" y="572" type="line"/>
      <point x="14" y="317" type="line"/>
      <point x="14" y="307" type="line"/>
    </contour>
  </outline>
</glyph>
<glyph name="question" format="1">
  <advance width="488"/>
  <unicode hex="003F"/>
  <outline>
    <contour>
      <point x="250" y="760" type="curve"/>
      <point x="84" y="760"/>
      <point x="6" y="654"/>
      <point x="-6" y="566" type="curve"/>
      <point x="4" y="556" type="line"/>
      <point x="130" y="568" type="line"/>
      <point x="154" y="654" type="line" smooth="yes"/>
      <point x="167" y="700"/>
      <point x="185" y="722"/>
      <point x="228" y="722" type="curve"/>
      <point x="302" y="722"/>
      <point x="332" y="633"/>
      <point x="332" y="526" type="curve"/>
      <point x="332" y="416"/>
      <point x="277" y="366"/>
      <point x="228" y="348" type="curve"/>
      <point x="218" y="338" type="line"/>
      <point x="218" y="204" type="line"/>
      <point x="258" y="204" type="line"/>
      <point x="258" y="326" type="line"/>
      <point x="353" y="356"/>
      <point x="478" y="424"/>
      <point x="478" y="558" type="curve"/>
      <point x="478" y="686"/>
      <point x="378" y="760"/>
    </contour>
    <component base="period" xOffset="104"/>
  </outline>
</glyph>
<glyph name="at" format="1">
  <advance width="927"/>
  <unicode hex="0040"/>
  <outline>
    <contour>
      <point x="335" y="142" type="curve"/>
      <point x="335" y="256"/>
      <point x="439" y="478"/>
      <point x="551" y="478" type="curve"/>
      <point x="583" y="478"/>
      <point x="612" y="462"/>
      <point x="612" y="420" type="curve" smooth="yes"/>
      <point x="612" y="310"/>
      <point x="473" y="92"/>
      <point x="379" y="92" type="curve"/>
      <point x="354" y="92"/>
      <point x="335" y="105"/>
    </contour>
    <contour>
      <point x="873" y="310" type="curve"/>
      <point x="873" y="508"/>
      <point x="743" y="664"/>
      <point x="500" y="664" type="curve"/>
      <point x="254" y="664"/>
      <point x="54" y="478"/>
      <point x="54" y="218" type="curve"/>
      <point x="54" y="-52"/>
      <point x="253" y="-187"/>
      <point x="473" y="-187" type="curve" smooth="yes"/>
      <point x="486" y="-187"/>
      <point x="499" y="-186"/>
      <point x="512" y="-185" type="curve"/>
      <point x="512" y="-151" type="line"/>
      <point x="499" y="-152"/>
      <point x="486" y="-153"/>
      <point x="473" y="-153" type="curve" smooth="yes"/>
      <point x="273" y="-153"/>
      <point x="134" y="-32"/>
      <point x="134" y="218" type="curve"/>
      <point x="134" y="448"/>
      <point x="274" y="630"/>
      <point x="500" y="630" type="curve"/>
      <point x="723" y="630"/>
      <point x="835" y="488"/>
      <point x="835" y="310" type="curve"/>
      <point x="835" y="113"/>
      <point x="706" y="39"/>
      <point x="642" y="39" type="curve"/>
      <point x="631" y="49" type="line"/>
      <point x="765" y="510" type="line"/>
      <point x="659" y="510" type="line"/>
      <point x="646" y="468" type="line"/>
      <point x="636" y="468" type="line"/>
      <point x="626" y="490"/>
      <point x="597" y="510"/>
      <point x="553" y="510" type="curve"/>
      <point x="382" y="510"/>
      <point x="195" y="246"/>
      <point x="195" y="88" type="curve"/>
      <point x="195" y="16"/>
      <point x="237" y="-10"/>
      <point x="295" y="-10" type="curve"/>
      <point x="390" y="-10"/>
      <point x="479" y="80"/>
      <point x="563" y="230" type="curve"/>
      <point x="577" y="230" type="line"/>
      <point x="532" y="116" type="line" smooth="yes"/>
      <point x="512" y="65"/>
      <point x="500" y="18"/>
      <point x="532" y="0" type="curve"/>
      <point x="592" y="0" type="line"/>
      <point x="711" y="0"/>
      <point x="873" y="82"/>
    </contour>
  </outline>
</glyph>
<glyph name="A" format="1">
  <advance width="793"/>
  <unicode hex="0041"/>
  <outline>
    <contour>
      <point x="534" y="289" type="line"/>
      <point x="212" y="289" type="line"/>
      <point x="212" y="235" type="line"/>
      <point x="534" y="235" type="line"/>
    </contour>
    <contour>
      <point x="84" y="44" type="line"/>
      <point x="144" y="44" type="line"/>
      <point x="350" y="537" type="line"/>
      <point x="360" y="537" type="line"/>
      <point x="559" y="44" type="line"/>
      <point x="709" y="44" type="line"/>
      <point x="413" y="760" type="line"/>
      <point x="385" y="760" type="line"/>
    </contour>
    <contour>
      <point x="144" y="44" type="line"/>
      <point x="84" y="44" type="line"/>
      <point x="74" y="34" type="line"/>
      <point x="14" y="34" type="line"/>
      <point x="14" y="0" type="line"/>
      <point x="14" y="0"/>
      <point x="236" y="0"/>
      <point x="236" y="0" type="curve"/>
      <point x="236" y="34" type="line"/>
      <point x="154" y="34" type="line"/>
    </contour>
    <contour>
      <point x="709" y="44" type="line"/>
      <point x="559" y="44" type="line"/>
      <point x="549" y="34" type="line"/>
      <point x="463" y="34" type="line"/>
      <point x="463" y="0" type="line"/>
      <point x="463" y="0"/>
      <point x="779" y="0"/>
      <point x="779" y="0" type="curve"/>
      <point x="779" y="34" type="line"/>
      <point x="719" y="34" type="line"/>
    </contour>
    <contour>
      <point x="398" y="760" type="move" name="top"/>
    </contour>
  </outline>
</glyph>
<glyph name="B" format="1">
  <advance width="714"/>
  <unicode hex="0042"/>
  <outline>
    <contour>
      <point x="54" y="716" type="line"/>
      <point x="144" y="716" type="line"/>
      <point x="154" y="706" type="line"/>
      <point x="154" y="44" type="line"/>
      <point x="144" y="34" type="line"/>
      <point x="54" y="34" type="line"/>
      <point x="54" y="0" type="line"/>
      <point x="396" y="0" type="line" smooth="yes"/>
      <point x="559" y="0"/>
      <point x="670" y="75"/>
      <point x="670" y="202" type="curve"/>
      <point x="670" y="311"/>
      <point x="600" y="366"/>
      <point x="484" y="384" type="curve"/>
      <point x="484" y="394" type="line"/>
      <point x="568" y="406"/>
      <point x="640" y="461"/>
      <point x="640" y="554" type="curve"/>
      <point x="640" y="682"/>
      <point x="528" y="750"/>
      <point x="364" y="750" type="curve" smooth="yes"/>
      <point x="54" y="750" type="line"/>
    </contour>
    <contour>
      <point x="298" y="696" type="line"/>
      <point x="308" y="696" type="line" smooth="yes"/>
      <point x="406" y="696"/>
      <point x="480" y="657"/>
      <point x="480" y="554" type="curve"/>
      <point x="480" y="450"/>
      <point x="406" y="408"/>
      <point x="308" y="408" type="curve" smooth="yes"/>
      <point x="298" y="408" type="line"/>
    </contour>
    <contour>
      <point x="340" y="354" type="line" smooth="yes"/>
      <point x="438" y="354"/>
      <point x="510" y="306"/>
      <point x="510" y="202" type="curve"/>
      <point x="510" y="99"/>
      <point x="438" y="54"/>
      <point x="340" y="54" type="curve" smooth="yes"/>
      <point x="298" y="54" type="line"/>
      <point x="298" y="354" type="line"/>
    </contour>
  </outline>
</glyph>
<glyph name="C" format="1">
  <advance width="784"/>
  <unicode hex="0043"/>
  <outline>
    <contour>
      <point x="760" y="150" type="curve"/>
      <point x="732" y="178" type="line"/>
      <point x="704" y="136"/>
      <point x="618" y="60"/>
      <point x="482" y="60" type="curve"/>
      <point x="310" y="60"/>
      <point x="214" y="200"/>
      <point x="214" y="410" type="curve"/>
      <point x="214" y="602"/>
      <point x="316" y="710"/>
      <point x="476" y="710" type="curve"/>
      <point x="611" y="710"/>
      <point x="694" y="628"/>
      <point x="694" y="522" type="curve" smooth="yes"/>
      <point x="694" y="490" type="line"/>
      <point x="732" y="490" type="line"/>
      <point x="732" y="750" type="line"/>
      <point x="732" y="750"/>
      <point x="694" y="750"/>
      <point x="694" y="750" type="curve"/>
      <point x="694" y="706" type="line"/>
      <point x="684" y="706" type="line"/>
      <point x="674" y="712"/>
      <point x="578" y="760"/>
      <point x="450" y="760" type="curve"/>
      <point x="218" y="760"/>
      <point x="54" y="602"/>
      <point x="54" y="364" type="curve"/>
      <point x="54" y="142"/>
      <point x="218" y="-10"/>
      <point x="444" y="-10" type="curve"/>
      <point x="636" y="-10"/>
      <point x="730" y="110"/>
    </contour>
    <contour>
      <point x="394" y="759" type="move" name="top"/>
    </contour>
    <contour>
      <point x="440" y="-10" type="move" name="bottom"/>
    </contour>
  </outline>
</glyph>
<glyph name="D" format="1">
  <advance width="856"/>
  <unicode hex="0044"/>
  <outline>
    <contour>
      <point x="54" y="716" type="line"/>
      <point x="144" y="716" type="line"/>
      <point x="154" y="706" type="line"/>
      <point x="154" y="44" type="line"/>
      <point x="144" y="34" type="line"/>
      <point x="54" y="34" type="line"/>
      <point x="54" y="0" type="line"/>
      <point x="374" y="0" type="line" smooth="yes"/>
      <point x="587" y="0"/>
      <point x="802" y="94"/>
      <point x="802" y="384" type="curve"/>
      <point x="802" y="654"/>
      <point x="617" y="750"/>
      <point x="356" y="750" type="curve" smooth="yes"/>
      <point x="54" y="750" type="line"/>
    </contour>
    <contour>
      <point x="296" y="696" type="line"/>
      <point x="312" y="696" type="line" smooth="yes"/>
      <point x="530" y="696"/>
      <point x="642" y="592"/>
      <point x="642" y="365" type="curve"/>
      <point x="642" y="157"/>
      <point x="531" y="54"/>
      <point x="324" y="54" type="curve" smooth="yes"/>
      <point x="296" y="54" type="line"/>
    </contour>
  </outline>
</glyph>
<glyph name="E" format="1">
  <advance width="723"/>
  <unicode hex="0045"/>
  <outline>
    <contour>
      <point x="297" y="360" type="line"/>
      <point x="511" y="360" type="line"/>
      <point x="521" y="350" type="line"/>
      <point x="521" y="278" type="line"/>
      <point x="559" y="278" type="line"/>
      <point x="559" y="496" type="line"/>
      <point x="521" y="496" type="line"/>
      <point x="521" y="424" type="line"/>
      <point x="511" y="414" type="line"/>
      <point x="297" y="414" type="line"/>
      <point x="297" y="678" type="line"/>
      <point x="495" y="678" type="line" smooth="yes"/>
      <point x="581" y="678"/>
      <point x="603" y="656"/>
      <point x="603" y="570" type="curve" smooth="yes"/>
      <point x="603" y="540" type="line"/>
      <point x="641" y="540" type="line"/>
      <point x="641" y="750" type="line"/>
      <point x="55" y="750" type="line"/>
      <point x="55" y="716" type="line"/>
      <point x="145" y="716" type="line"/>
      <point x="155" y="706" type="line"/>
      <point x="155" y="44" type="line"/>
      <point x="145" y="34" type="line"/>
      <point x="54" y="34" type="line"/>
      <point x="54" y="0" type="line"/>
      <point x="669" y="0" type="line"/>
      <point x="669" y="220" type="line"/>
      <point x="631" y="220" type="line"/>
      <point x="631" y="180" type="line" smooth="yes"/>
      <point x="631" y="94"/>
      <point x="609" y="72"/>
      <point x="523" y="72" type="curve" smooth="yes"/>
      <point x="297" y="72" type="line"/>
    </contour>
    <contour>
      <point x="364" y="760" type="move" name="top"/>
    </contour>
  </outline>
</glyph>
<glyph name="F" format="1">
  <advance width="704"/>
  <unicode hex="0046"/>
  <outline>
    <contour>
      <point x="296" y="360" type="line"/>
      <point x="530" y="360" type="line"/>
      <point x="540" y="350" type="line"/>
      <point x="540" y="278" type="line"/>
      <point x="578" y="278" type="line"/>
      <point x="578" y="496" type="line"/>
      <point x="540" y="496" type="line"/>
      <point x="540" y="424" type="line"/>
      <point x="530" y="414" type="line"/>
      <point x="296" y="414" type="line"/>
      <point x="296" y="678" type="line"/>
      <point x="544" y="678" type="line" smooth="yes"/>
      <point x="630" y="678"/>
      <point x="652" y="656"/>
      <point x="652" y="570" type="curve"/>
      <point x="652" y="540" type="line"/>
      <point x="690" y="540" type="line"/>
      <point x="690" y="750" type="line"/>
      <point x="60" y="750" type="line"/>
      <point x="60" y="716" type="line"/>
      <point x="144" y="716" type="line"/>
      <point x="154" y="706" type="line"/>
      <point x="154" y="44" type="line"/>
      <point x="296" y="44" type="line"/>
    </contour>
    <contour>
      <point x="296" y="44" type="line"/>
      <point x="154" y="44" type="line"/>
      <point x="144" y="34" type="line"/>
      <point x="54" y="34" type="line"/>
      <point x="54" y="0" type="line"/>
      <point x="54" y="0"/>
      <point x="422" y="0"/>
      <point x="422" y="0" type="curve"/>
      <point x="422" y="34" type="line"/>
      <point x="306" y="34" type="line"/>
    </contour>
  </outline>
</glyph>
<glyph name="G" format="1">
  <advance width="844"/>
  <unicode hex="0047"/>
  <outline>
    <contour>
      <point x="702" y="72" type="line"/>
      <point x="702" y="0" type="line"/>
      <point x="740" y="0" type="line"/>
      <point x="740" y="322" type="line"/>
      <point x="750" y="332" type="line"/>
      <point x="810" y="332" type="line"/>
      <point x="810" y="366" type="line"/>
      <point x="518" y="366" type="line"/>
      <point x="518" y="332" type="line"/>
      <point x="608" y="332" type="line"/>
      <point x="618" y="322" type="line"/>
      <point x="618" y="222" type="line" smooth="yes"/>
      <point x="618" y="120"/>
      <point x="584" y="40"/>
      <point x="464" y="40" type="curve"/>
      <point x="294" y="40"/>
      <point x="214" y="190"/>
      <point x="214" y="380" type="curve"/>
      <point x="214" y="560"/>
      <point x="304" y="710"/>
      <point x="474" y="710" type="curve"/>
      <point x="584" y="710"/>
      <point x="694" y="644"/>
      <point x="694" y="528" type="curve" smooth="yes"/>
      <point x="694" y="488" type="line"/>
      <point x="732" y="488" type="line"/>
      <point x="732" y="750" type="line"/>
      <point x="694" y="750" type="line"/>
      <point x="694" y="706" type="line"/>
      <point x="683" y="706" type="line"/>
      <point x="656" y="720"/>
      <point x="568" y="760"/>
      <point x="454" y="760" type="curve"/>
      <point x="208" y="760"/>
      <point x="54" y="594"/>
      <point x="54" y="366" type="curve"/>
      <point x="54" y="145"/>
      <point x="216" y="-10"/>
      <point x="440" y="-10" type="curve"/>
      <point x="602" y="-10"/>
      <point x="665" y="50"/>
      <point x="692" y="72" type="curve"/>
    </contour>
  </outline>
</glyph>
<glyph name="H" format="1">
  <advance width="896"/>
  <unicode hex="0048"/>
  <outline>
    <contour>
      <point x="610" y="402" type="line"/>
      <point x="286" y="402" type="line"/>
      <point x="286" y="348" type="line"/>
      <point x="610" y="348" type="line"/>
    </contour>
    <contour>
      <point x="296" y="44" type="line"/>
      <point x="296" y="706" type="line"/>
      <point x="296" y="706"/>
      <point x="154" y="706"/>
      <point x="154" y="706" type="curve"/>
      <point x="154" y="44" type="line"/>
    </contour>
    <contour>
      <point x="296" y="44" type="line"/>
      <point x="154" y="44" type="line"/>
      <point x="144" y="34" type="line"/>
      <point x="54" y="34" type="line"/>
      <point x="54" y="0" type="line"/>
      <point x="54" y="0"/>
      <point x="390" y="0"/>
      <point x="390" y="0" type="curve"/>
      <point x="390" y="34" type="line"/>
      <point x="306" y="34" type="line"/>
    </contour>
    <contour>
      <point x="296" y="706" type="line"/>
      <point x="306" y="716" type="line"/>
      <point x="390" y="716" type="line"/>
      <point x="390" y="750" type="line"/>
      <point x="390" y="750"/>
      <point x="54" y="750"/>
      <point x="54" y="750" type="curve"/>
      <point x="54" y="716" type="line"/>
      <point x="144" y="716" type="line"/>
      <point x="154" y="706" type="line"/>
    </contour>
    <contour>
      <point x="742" y="44" type="line"/>
      <point x="742" y="706" type="line"/>
      <point x="742" y="706"/>
      <point x="600" y="706"/>
      <point x="600" y="706" type="curve"/>
      <point x="600" y="44" type="line"/>
    </contour>
    <contour>
      <point x="742" y="44" type="line"/>
      <point x="600" y="44" type="line"/>
      <point x="590" y="34" type="line"/>
      <point x="506" y="34" type="line"/>
      <point x="506" y="0" type="line"/>
      <point x="506" y="0"/>
      <point x="842" y="0"/>
      <point x="842" y="0" type="curve"/>
      <point x="842" y="34" type="line"/>
      <point x="752" y="34" type="line"/>
    </contour>
    <contour>
      <point x="742" y="706" type="line"/>
      <point x="752" y="716" type="line"/>
      <point x="842" y="716" type="line"/>
      <point x="842" y="750" type="line"/>
      <point x="842" y="750"/>
      <point x="506" y="750"/>
      <point x="506" y="750" type="curve"/>
      <point x="506" y="716" type="line"/>
      <point x="590" y="716" type="line"/>
      <point x="600" y="706" type="line"/>
    </contour>
  </outline>
</glyph>
<glyph name="I" format="1">
  <advance width="450"/>
  <unicode hex="0049"/>
  <outline>
    <contour>
      <point x="296" y="44" type="line"/>
      <point x="296" y="706" type="line"/>
      <point x="296" y="706"/>
      <point x="154" y="706"/>
      <point x="154" y="706" type="curve"/>
      <point x="154" y="44" type="line"/>
    </contour>
    <contour>
      <point x="296" y="44" type="line"/>
      <point x="154" y="44" type="line"/>
      <point x="144" y="34" type="line"/>
      <point x="54" y="34" type="line"/>
      <point x="54" y="0" type="line"/>
      <point x="54" y="0"/>
      <point x="396" y="0"/>
      <point x="396" y="0" type="curve"/>
      <point x="396" y="34" type="line"/>
      <point x="306" y="34" type="line"/>
    </contour>
    <contour>
      <point x="296" y="706" type="line"/>
      <point x="306" y="716" type="line"/>
      <point x="396" y="716" type="line"/>
      <point x="396" y="750" type="line"/>
      <point x="396" y="750"/>
      <point x="54" y="750"/>
      <point x="54" y="750" type="curve"/>
      <point x="54" y="716" type="line"/>
      <point x="144" y="716" type="line"/>
      <point x="154" y="706" type="line"/>
    </contour>
    <contour>
      <point x="210" y="760" type="move" name="top"/>
    </contour>
  </outline>
</glyph>
<glyph name="J" format="1">
  <advance width="384"/>
  <unicode hex="004A"/>
  <outline>
    <contour>
      <point x="280" y="194" type="curve" smooth="yes"/>
      <point x="280" y="706" type="line"/>
      <point x="290" y="716" type="line"/>
      <point x="350" y="716" type="line"/>
      <point x="350" y="750" type="line"/>
      <point x="52" y="750" type="line"/>
      <point x="52" y="716" type="line"/>
      <point x="126" y="716" type="line"/>
      <point x="136" y="706" type="line"/>
      <point x="136" y="140" type="line" smooth="yes"/>
      <point x="136" y="34"/>
      <point x="116" y="-32"/>
      <point x="14" y="-52" type="curve" smooth="yes"/>
      <point x="-6" y="-56" type="line"/>
      <point x="6" y="-88" type="line"/>
      <point x="18" y="-86" type="line" smooth="yes"/>
      <point x="199" y="-56"/>
      <point x="280" y="40"/>
    </contour>
  </outline>
</glyph>
<glyph name="K" format="1">
  <advance width="782"/>
  <unicode hex="004B"/>
  <outline>
    <contour>
      <point x="298" y="44" type="line"/>
      <point x="298" y="364" type="line"/>
      <point x="308" y="364" type="line"/>
      <point x="554" y="0" type="line"/>
      <point x="768" y="0" type="line"/>
      <point x="768" y="34" type="line"/>
      <point x="714" y="34" type="line"/>
      <point x="419" y="440" type="line"/>
      <point x="676" y="716" type="line"/>
      <point x="736" y="716" type="line"/>
      <point x="736" y="750" type="line"/>
      <point x="456" y="750" type="line"/>
      <point x="456" y="716" type="line"/>
      <point x="572" y="716" type="line"/>
      <point x="582" y="706" type="line"/>
      <point x="308" y="398" type="line"/>
      <point x="298" y="398" type="line"/>
      <point x="298" y="706" type="line"/>
      <point x="308" y="716" type="line"/>
      <point x="392" y="716" type="line"/>
      <point x="392" y="750" type="line"/>
      <point x="54" y="750" type="line"/>
      <point x="54" y="716" type="line"/>
      <point x="144" y="716" type="line"/>
      <point x="154" y="706" type="line"/>
      <point x="154" y="44" type="line"/>
      <point x="144" y="34" type="line"/>
      <point x="54" y="34" type="line"/>
      <point x="54" y="0" type="line"/>
      <point x="402" y="0" type="line"/>
      <point x="402" y="34" type="line"/>
      <point x="308" y="34" type="line"/>
    </contour>
  </outline>
</glyph>
<glyph name="L" format="1">
  <advance width="677"/>
  <unicode hex="004C"/>
  <outline>
    <contour>
      <point x="290" y="706" type="line"/>
      <point x="148" y="706" type="line"/>
      <point x="148" y="45" type="line"/>
      <point x="137" y="34" type="line"/>
      <point x="54" y="34" type="line"/>
      <point x="54" y="0" type="line"/>
      <point x="643" y="0" type="line"/>
      <point x="643" y="220" type="line"/>
      <point x="605" y="220" type="line"/>
      <point x="605" y="180" type="line" smooth="yes"/>
      <point x="605" y="94"/>
      <point x="583" y="72"/>
      <point x="497" y="72" type="curve" smooth="yes"/>
      <point x="290" y="72" type="line"/>
    </contour>
    <contour>
      <point x="290" y="706" type="line"/>
      <point x="300" y="716" type="line"/>
      <point x="417" y="716" type="line"/>
      <point x="417" y="750" type="line"/>
      <point x="417" y="750"/>
      <point x="55" y="750"/>
      <point x="55" y="750" type="curve"/>
      <point x="55" y="716" type="line"/>
      <point x="138" y="716" type="line"/>
      <point x="148" y="706" type="line"/>
    </contour>
  </outline>
</glyph>
<glyph name="M" format="1">
  <advance width="1073"/>
  <unicode hex="004D"/>
  <outline>
    <contour>
      <point x="774" y="750" type="line"/>
      <point x="774" y="604" type="line"/>
      <point x="763" y="604" type="line"/>
      <point x="503" y="-11" type="line"/>
      <point x="481" y="-11" type="line"/>
      <point x="227" y="616" type="line"/>
      <point x="216" y="616" type="line"/>
      <point x="216" y="750" type="line"/>
      <point x="326" y="750" type="line"/>
      <point x="533" y="225" type="line"/>
      <point x="543" y="225" type="line"/>
      <point x="756" y="750" type="line"/>
    </contour>
    <contour>
      <point x="216" y="750" type="line"/>
      <point x="216" y="44" type="line"/>
      <point x="226" y="34" type="line"/>
      <point x="320" y="34" type="line"/>
      <point x="320" y="0" type="line"/>
      <point x="54" y="0" type="line"/>
      <point x="54" y="34" type="line"/>
      <point x="144" y="34" type="line"/>
      <point x="154" y="44" type="line"/>
      <point x="154" y="706" type="line"/>
      <point x="144" y="716" type="line"/>
      <point x="54" y="716" type="line"/>
      <point x="54" y="750" type="line"/>
    </contour>
    <contour>
      <point x="774" y="750" type="line"/>
      <point x="1019" y="750" type="line"/>
      <point x="1019" y="716" type="line"/>
      <point x="929" y="716" type="line"/>
      <point x="918" y="705" type="line"/>
      <point x="918" y="45" type="line"/>
      <point x="929" y="34" type="line"/>
      <point x="1019" y="34" type="line"/>
      <point x="1019" y="0" type="line"/>
      <point x="669" y="0" type="line"/>
      <point x="669" y="34" type="line"/>
      <point x="763" y="34" type="line"/>
      <point x="774" y="45" type="line"/>
    </contour>
  </outline>
</glyph>
<glyph name="N" format="1">
  <advance width="872"/>
  <unicode hex="004E"/>
  <outline>
    <contour>
      <point x="216" y="568" type="line"/>
      <point x="226" y="568" type="line"/>
      <point x="664" y="0" type="line"/>
      <point x="748" y="0" type="line"/>
      <point x="748" y="706" type="line"/>
      <point x="758" y="716" type="line"/>
      <point x="838" y="716" type="line"/>
      <point x="838" y="750" type="line"/>
      <point x="582" y="750" type="line"/>
      <point x="582" y="716" type="line"/>
      <point x="676" y="716" type="line"/>
      <point x="686" y="706" type="line"/>
      <point x="686" y="225" type="line"/>
      <point x="676" y="225" type="line"/>
      <point x="272" y="750" type="line"/>
      <point x="24" y="750" type="line"/>
      <point x="24" y="716" type="line"/>
      <point x="84" y="716" type="line"/>
      <point x="154" y="634" type="line"/>
      <point x="154" y="44" type="line"/>
      <point x="144" y="34" type="line"/>
      <point x="50" y="34" type="line"/>
      <point x="50" y="0" type="line"/>
      <point x="320" y="0" type="line"/>
      <point x="320" y="34" type="line"/>
      <point x="226" y="34" type="line"/>
      <point x="216" y="44" type="line"/>
    </contour>
    <contour>
      <point x="434" y="760" type="move" name="top"/>
    </contour>
  </outline>
</glyph>
<glyph name="O" format="1">
  <advance width="828"/>
  <unicode hex="004F"/>
  <outline>
    <contour>
      <point x="436" y="44" type="curve"/>
      <point x="280" y="44"/>
      <point x="214" y="210"/>
      <point x="214" y="430" type="curve"/>
      <point x="214" y="620"/>
      <point x="284" y="706"/>
      <point x="392" y="706" type="curve"/>
      <point x="548" y="706"/>
      <point x="614" y="540"/>
      <point x="614" y="320" type="curve"/>
      <point x="614" y="130"/>
      <point x="544" y="44"/>
    </contour>
    <contour>
      <point x="414" y="-10" type="curve"/>
      <point x="621" y="-10"/>
      <point x="774" y="158"/>
      <point x="774" y="386" type="curve" smooth="yes"/>
      <point x="774" y="616"/>
      <point x="631" y="760"/>
      <point x="414" y="760" type="curve"/>
      <point x="207" y="760"/>
      <point x="54" y="592"/>
      <point x="54" y="364" type="curve"/>
      <point x="54" y="134"/>
      <point x="197" y="-10"/>
    </contour>
    <contour>
      <point x="414" y="759" type="move" name="top"/>
    </contour>
  </outline>
</glyph>
<glyph name="P" format="1">
  <advance width="678"/>
  <unicode hex="0050"/>
  <outline>
    <contour>
      <point x="290" y="335" type="line"/>
      <point x="290" y="389" type="line"/>
      <point x="322" y="389" type="line" smooth="yes"/>
      <point x="420" y="389"/>
      <point x="485" y="433"/>
      <point x="485" y="542" type="curve"/>
      <point x="485" y="651"/>
      <point x="420" y="696"/>
      <point x="322" y="696" type="curve" smooth="yes"/>
      <point x="290" y="696" type="line"/>
      <point x="290" y="750" type="line"/>
      <point x="368" y="750" type="line" smooth="yes"/>
      <point x="532" y="750"/>
      <point x="644" y="669"/>
      <point x="644" y="536" type="curve"/>
      <point x="644" y="403"/>
      <point x="532" y="335"/>
      <point x="368" y="335" type="curve" smooth="yes"/>
    </contour>
    <contour>
      <point x="290" y="750" type="line"/>
      <point x="290" y="44" type="line"/>
      <point x="300" y="34" type="line"/>
      <point x="396" y="34" type="line"/>
      <point x="396" y="0" type="line"/>
      <point x="54" y="0" type="line"/>
      <point x="54" y="34" type="line"/>
      <point x="138" y="34" type="line"/>
      <point x="148" y="44" type="line"/>
      <point x="148" y="706" type="line"/>
      <point x="138" y="716" type="line"/>
      <point x="54" y="716" type="line"/>
      <point x="54" y="750" type="line"/>
    </contour>
  </outline>
</glyph>
<glyph name="Q" format="1">
  <advance width="828"/>
  <unicode hex="0051"/>
  <outline>
    <contour>
      <point x="457" y="194" type="line"/>
      <point x="696" y="-44" type="line"/>
      <point x="730" y="-10" type="line"/>
      <point x="491" y="228" type="line"/>
    </contour>
    <component base="O"/>
  </outline>
</glyph>
<glyph name="R" format="1">
  <advance width="781"/>
  <unicode hex="0052"/>
  <outline>
    <contour>
      <point x="290" y="696" type="line"/>
      <point x="342" y="696" type="line" smooth="yes"/>
      <point x="432" y="696"/>
      <point x="504" y="657"/>
      <point x="504" y="562" type="curve"/>
      <point x="504" y="469"/>
      <point x="438" y="400"/>
      <point x="290" y="394" type="curve"/>
    </contour>
    <contour>
      <point x="576" y="0" type="line" smooth="yes"/>
      <point x="787" y="0" type="line"/>
      <point x="787" y="34" type="line"/>
      <point x="719" y="34" type="line"/>
      <point x="496" y="365" type="line"/>
      <point x="496" y="375" type="line"/>
      <point x="596" y="398"/>
      <point x="664" y="466"/>
      <point x="664" y="556" type="curve" smooth="yes"/>
      <point x="664" y="678"/>
      <point x="560" y="750"/>
      <point x="394" y="750" type="curve" smooth="yes"/>
      <point x="54" y="750" type="line"/>
      <point x="54" y="716" type="line"/>
      <point x="138" y="716" type="line"/>
      <point x="148" y="706" type="line"/>
      <point x="148" y="44" type="line"/>
      <point x="138" y="34" type="line"/>
      <point x="54" y="34" type="line"/>
      <point x="54" y="0" type="line"/>
      <point x="384" y="0" type="line"/>
      <point x="384" y="34" type="line"/>
      <point x="300" y="34" type="line"/>
      <point x="290" y="44" type="line"/>
      <point x="290" y="360" type="line"/>
      <point x="350" y="360" type="line"/>
    </contour>
  </outline>
</glyph>
<glyph name="S" format="1">
  <advance width="591"/>
  <unicode hex="0053"/>
  <outline>
    <contour>
      <point x="66" y="566" type="curve" smooth="yes"/>
      <point x="66" y="475"/>
      <point x="103" y="427"/>
      <point x="167" y="382" type="curve" smooth="yes"/>
      <point x="297" y="290" type="line" smooth="yes"/>
      <point x="352" y="251"/>
      <point x="385" y="208"/>
      <point x="385" y="144" type="curve" smooth="yes"/>
      <point x="385" y="80"/>
      <point x="343" y="44"/>
      <point x="275" y="44" type="curve"/>
      <point x="164" y="44"/>
      <point x="92" y="146"/>
      <point x="92" y="236" type="curve" smooth="yes"/>
      <point x="92" y="258" type="line"/>
      <point x="54" y="258" type="line"/>
      <point x="54" y="-1" type="line"/>
      <point x="54" y="-1"/>
      <point x="92" y="-1"/>
      <point x="92" y="-1" type="curve"/>
      <point x="92" y="43" type="line"/>
      <point x="103" y="43" type="line"/>
      <point x="132" y="28"/>
      <point x="205" y="-10"/>
      <point x="303" y="-10" type="curve" smooth="yes"/>
      <point x="439" y="-10"/>
      <point x="537" y="61"/>
      <point x="537" y="192" type="curve"/>
      <point x="537" y="268"/>
      <point x="499" y="343"/>
      <point x="424" y="394" type="curve" smooth="yes"/>
      <point x="290" y="484" type="line" smooth="yes"/>
      <point x="228" y="526"/>
      <point x="204" y="554"/>
      <point x="204" y="612" type="curve"/>
      <point x="204" y="668"/>
      <point x="237" y="706"/>
      <point x="299" y="706" type="curve"/>
      <point x="405" y="706"/>
      <point x="465" y="613"/>
      <point x="465" y="524" type="curve" smooth="yes"/>
      <point x="465" y="490" type="line"/>
      <point x="503" y="490" type="line"/>
      <point x="503" y="750" type="line"/>
      <point x="503" y="750"/>
      <point x="465" y="750"/>
      <point x="465" y="750" type="curve"/>
      <point x="465" y="706" type="line"/>
      <point x="455" y="706" type="line"/>
      <point x="424" y="724"/>
      <point x="364" y="760"/>
      <point x="274" y="760" type="curve"/>
      <point x="164" y="760"/>
      <point x="66" y="696"/>
    </contour>
  </outline>
</glyph>
<glyph name="T" format="1">
  <advance width="684"/>
  <unicode hex="0054"/>
  <outline>
    <contour>
      <point x="413" y="44" type="line"/>
      <point x="413" y="678" type="line"/>
      <point x="413" y="678"/>
      <point x="271" y="678"/>
      <point x="271" y="678" type="curve"/>
      <point x="271" y="44" type="line"/>
    </contour>
    <contour>
      <point x="413" y="44" type="line"/>
      <point x="271" y="44" type="line"/>
      <point x="261" y="34" type="line"/>
      <point x="176" y="34" type="line"/>
      <point x="176" y="0" type="line"/>
      <point x="176" y="0"/>
      <point x="508" y="0"/>
      <point x="508" y="0" type="curve"/>
      <point x="508" y="34" type="line"/>
      <point x="423" y="34" type="line"/>
    </contour>
    <contour>
      <point x="52" y="570" type="line" smooth="yes"/>
      <point x="52" y="656"/>
      <point x="74" y="678"/>
      <point x="160" y="678" type="curve" smooth="yes"/>
      <point x="524" y="678" type="line" smooth="yes"/>
      <point x="610" y="678"/>
      <point x="632" y="656"/>
      <point x="632" y="570" type="curve" smooth="yes"/>
      <point x="632" y="540" type="line"/>
      <point x="670" y="540" type="line"/>
      <point x="670" y="750" type="line"/>
      <point x="14" y="750" type="line"/>
      <point x="14" y="540" type="line"/>
      <point x="52" y="540" type="line"/>
    </contour>
  </outline>
</glyph>
<glyph name="U" format="1">
  <advance width="818"/>
  <unicode hex="0055"/>
  <outline>
    <contour>
      <point x="410" y="-10" type="curve" smooth="yes"/>
      <point x="592" y="-10"/>
      <point x="694" y="88"/>
      <point x="694" y="300" type="curve" smooth="yes"/>
      <point x="694" y="706" type="line"/>
      <point x="704" y="716" type="line"/>
      <point x="784" y="716" type="line"/>
      <point x="784" y="750" type="line"/>
      <point x="528" y="750" type="line"/>
      <point x="528" y="716" type="line"/>
      <point x="622" y="716" type="line"/>
      <point x="632" y="706" type="line"/>
      <point x="632" y="300" type="line" smooth="yes"/>
      <point x="632" y="145"/>
      <point x="572" y="70"/>
      <point x="460" y="70" type="curve"/>
      <point x="348" y="70"/>
      <point x="276" y="127"/>
      <point x="276" y="278" type="curve" smooth="yes"/>
      <point x="276" y="706" type="line"/>
      <point x="276" y="706"/>
      <point x="132" y="706"/>
      <point x="132" y="706" type="curve"/>
      <point x="132" y="276" type="line" smooth="yes"/>
      <point x="132" y="62"/>
      <point x="244" y="-10"/>
    </contour>
    <contour>
      <point x="276" y="706" type="line"/>
      <point x="286" y="716" type="line"/>
      <point x="380" y="716" type="line"/>
      <point x="380" y="750" type="line"/>
      <point x="380" y="750"/>
      <point x="42" y="750"/>
      <point x="42" y="750" type="curve"/>
      <point x="42" y="716" type="line"/>
      <point x="122" y="716" type="line"/>
      <point x="132" y="706" type="line"/>
    </contour>
    <contour>
      <point x="414" y="760" type="move" name="top"/>
    </contour>
  </outline>
</glyph>
<glyph name="V" format="1">
  <advance width="755"/>
  <unicode hex="0056"/>
  <outline>
    <contour>
      <point x="675" y="706" type="line"/>
      <point x="607" y="706" type="line"/>
      <point x="425" y="242" type="line"/>
      <point x="415" y="242" type="line"/>
      <point x="238" y="706" type="line"/>
      <point x="84" y="706" type="line"/>
      <point x="368" y="-10" type="line"/>
      <point x="390" y="-10" type="line"/>
    </contour>
    <contour>
      <point x="607" y="706" type="line"/>
      <point x="675" y="706" type="line"/>
      <point x="685" y="716" type="line"/>
      <point x="741" y="716" type="line"/>
      <point x="741" y="750" type="line"/>
      <point x="741" y="750"/>
      <point x="519" y="750"/>
      <point x="519" y="750" type="curve"/>
      <point x="519" y="716" type="line"/>
      <point x="597" y="716" type="line"/>
    </contour>
    <contour>
      <point x="84" y="706" type="line"/>
      <point x="238" y="706" type="line"/>
      <point x="248" y="716" type="line"/>
      <point x="338" y="716" type="line"/>
      <point x="338" y="750" type="line"/>
      <point x="338" y="750"/>
      <point x="14" y="750"/>
      <point x="14" y="750" type="curve"/>
      <point x="14" y="716" type="line"/>
      <point x="74" y="716" type="line"/>
    </contour>
  </outline>
</glyph>
<glyph name="W" format="1">
  <advance width="1087"/>
  <unicode hex="0057"/>
  <outline>
    <contour>
      <point x="598" y="623" type="line"/>
      <point x="534" y="623" type="line"/>
      <point x="399" y="245" type="line"/>
      <point x="389" y="245" type="line"/>
      <point x="238" y="706" type="line"/>
      <point x="84" y="706" type="line"/>
      <point x="340" y="-10" type="line"/>
      <point x="362" y="-10" type="line"/>
      <point x="537" y="474" type="line"/>
      <point x="547" y="474" type="line"/>
    </contour>
    <contour>
      <point x="84" y="706" type="line"/>
      <point x="238" y="706" type="line"/>
      <point x="248" y="716" type="line"/>
      <point x="308" y="716" type="line"/>
      <point x="308" y="750" type="line"/>
      <point x="308" y="750"/>
      <point x="14" y="750"/>
      <point x="14" y="750" type="curve"/>
      <point x="14" y="716" type="line"/>
      <point x="74" y="716" type="line"/>
    </contour>
    <contour>
      <point x="1007" y="706" type="line"/>
      <point x="939" y="706" type="line"/>
      <point x="779" y="245" type="line"/>
      <point x="769" y="245" type="line"/>
      <point x="618" y="706" type="line"/>
      <point x="464" y="706" type="line"/>
      <point x="720" y="-10" type="line"/>
      <point x="742" y="-10" type="line"/>
    </contour>
    <contour>
      <point x="939" y="706" type="line"/>
      <point x="1007" y="706" type="line"/>
      <point x="1017" y="716" type="line"/>
      <point x="1073" y="716" type="line"/>
      <point x="1073" y="750" type="line"/>
      <point x="1073" y="750"/>
      <point x="851" y="750"/>
      <point x="851" y="750" type="curve"/>
      <point x="851" y="716" type="line"/>
      <point x="929" y="716" type="line"/>
    </contour>
    <contour>
      <point x="464" y="706" type="line"/>
      <point x="618" y="706" type="line"/>
      <point x="628" y="716" type="line"/>
      <point x="688" y="716" type="line"/>
      <point x="688" y="750" type="line"/>
      <point x="688" y="750"/>
      <point x="394" y="750"/>
      <point x="394" y="750" type="curve"/>
      <point x="394" y="716" type="line"/>
      <point x="454" y="716" type="line"/>
    </contour>
  </outline>
</glyph>
<glyph name="X" format="1">
  <advance width="832"/>
  <unicode hex="0058"/>
  <outline>
    <contour>
      <point x="636" y="706" type="line"/>
      <point x="710" y="706" type="line"/>
      <point x="720" y="716" type="line"/>
      <point x="790" y="716" type="line"/>
      <point x="790" y="750" type="line"/>
      <point x="790" y="750"/>
      <point x="546" y="750"/>
      <point x="546" y="750" type="curve"/>
      <point x="546" y="716" type="line"/>
      <point x="626" y="716" type="line"/>
    </contour>
    <contour>
      <point x="124" y="706" type="line"/>
      <point x="290" y="706" type="line"/>
      <point x="300" y="716" type="line"/>
      <point x="404" y="716" type="line"/>
      <point x="404" y="750" type="line"/>
      <point x="404" y="750"/>
      <point x="30" y="750"/>
      <point x="30" y="750" type="curve"/>
      <point x="30" y="716" type="line"/>
      <point x="114" y="716" type="line"/>
    </contour>
    <contour>
      <point x="723" y="44" type="line"/>
      <point x="290" y="706" type="line"/>
      <point x="124" y="706" type="line"/>
      <point x="558" y="44" type="line"/>
    </contour>
    <contour>
      <point x="710" y="706" type="line"/>
      <point x="636" y="706" type="line"/>
      <point x="454" y="470" type="line"/>
      <point x="444" y="470" type="line"/>
      <point x="396" y="418" type="line"/>
      <point x="94" y="44" type="line"/>
      <point x="168" y="44" type="line"/>
      <point x="376" y="309" type="line"/>
      <point x="386" y="309" type="line"/>
      <point x="437" y="376" type="line"/>
    </contour>
    <contour>
      <point x="723" y="44" type="line"/>
      <point x="558" y="44" type="line"/>
      <point x="548" y="34" type="line"/>
      <point x="443" y="34" type="line"/>
      <point x="443" y="0" type="line"/>
      <point x="443" y="0"/>
      <point x="818" y="0"/>
      <point x="818" y="0" type="curve"/>
      <point x="818" y="34" type="line"/>
      <point x="733" y="34" type="line"/>
    </contour>
    <contour>
      <point x="168" y="44" type="line"/>
      <point x="94" y="44" type="line"/>
      <point x="84" y="34" type="line"/>
      <point x="14" y="34" type="line"/>
      <point x="14" y="0" type="line"/>
      <point x="14" y="0"/>
      <point x="258" y="0"/>
      <point x="258" y="0" type="curve"/>
      <point x="258" y="34" type="line"/>
      <point x="178" y="34" type="line"/>
    </contour>
  </outline>
</glyph>
<glyph name="Y" format="1">
  <advance width="798"/>
  <unicode hex="0059"/>
  <outline>
    <contour>
      <point x="474" y="44" type="line"/>
      <point x="474" y="346" type="line"/>
      <point x="704" y="706" type="line"/>
      <point x="714" y="716" type="line"/>
      <point x="784" y="716" type="line"/>
      <point x="784" y="750" type="line"/>
      <point x="548" y="750" type="line"/>
      <point x="548" y="716" type="line"/>
      <point x="628" y="716" type="line"/>
      <point x="638" y="706" type="line"/>
      <point x="451" y="400" type="line"/>
      <point x="441" y="400" type="line"/>
      <point x="256" y="706" type="line"/>
      <point x="266" y="716" type="line"/>
      <point x="354" y="716" type="line"/>
      <point x="354" y="750" type="line"/>
      <point x="14" y="750" type="line"/>
      <point x="14" y="716" type="line"/>
      <point x="84" y="716" type="line"/>
      <point x="94" y="706" type="line"/>
      <point x="330" y="344" type="line"/>
      <point x="330" y="44" type="line"/>
      <point x="320" y="34" type="line"/>
      <point x="230" y="34" type="line"/>
      <point x="230" y="0" type="line"/>
      <point x="574" y="0" type="line"/>
      <point x="574" y="34" type="line"/>
      <point x="484" y="34" type="line"/>
    </contour>
    <contour>
      <point x="414" y="760" type="move" name="top"/>
    </contour>
  </outline>
</glyph>
<glyph name="Z" format="1">
  <advance width="692"/>
  <unicode hex="005A"/>
  <outline>
    <contour>
      <point x="654" y="716" type="line"/>
      <point x="474" y="696" type="line"/>
      <point x="474" y="686" type="line"/>
      <point x="34" y="34" type="line"/>
      <point x="214" y="54" type="line"/>
      <point x="214" y="64" type="line"/>
    </contour>
    <contour>
      <point x="474" y="696" type="line"/>
      <point x="654" y="716" type="line"/>
      <point x="654" y="750" type="line"/>
      <point x="80" y="750" type="line"/>
      <point x="80" y="540" type="line"/>
      <point x="118" y="540" type="line"/>
      <point x="118" y="594" type="line" smooth="yes"/>
      <point x="118" y="677"/>
      <point x="146" y="696"/>
      <point x="250" y="696" type="curve" smooth="yes"/>
    </contour>
    <contour>
      <point x="214" y="54" type="line"/>
      <point x="34" y="34" type="line"/>
      <point x="34" y="0" type="line"/>
      <point x="658" y="0" type="line"/>
      <point x="658" y="230" type="line"/>
      <point x="620" y="230" type="line"/>
      <point x="620" y="170" type="line"/>
      <point x="620" y="78"/>
      <point x="592" y="54"/>
      <point x="488" y="54" type="curve" smooth="yes"/>
    </contour>
  </outline>
</glyph>
<glyph name="bracketleft" format="1">
  <advance width="268"/>
  <unicode hex="005B"/>
  <outline>
    <contour>
      <point x="54" y="-250" type="line"/>
      <point x="254" y="-250" type="line"/>
      <point x="254" y="-216" type="line"/>
      <point x="102" y="-216" type="line"/>
      <point x="92" y="-206" type="line"/>
      <point x="92" y="706" type="line"/>
      <point x="102" y="716" type="line"/>
      <point x="254" y="716" type="line"/>
      <point x="254" y="750" type="line"/>
      <point x="54" y="750" type="line"/>
    </contour>
  </outline>
</glyph>
<glyph name="bracketright" format="1">
  <advance width="268"/>
  <unicode hex="005D"/>
  <outline>
    <contour>
      <point x="214" y="-250" type="line"/>
      <point x="214" y="750" type="line"/>
      <point x="14" y="750" type="line"/>
      <point x="14" y="716" type="line"/>
      <point x="166" y="716" type="line"/>
      <point x="176" y="706" type="line"/>
      <point x="176" y="-206" type="line"/>
      <point x="166" y="-216" type="line"/>
      <point x="14" y="-216" type="line"/>
      <point x="14" y="-250" type="line"/>
    </contour>
  </outline>
</glyph>
<glyph name="asciicircum" format="1">
  <advance width="268"/>
  <unicode hex="005E"/>
  <outline>
    <contour>
      <point x="-2" y="207" type="line"/>
      <point x="108" y="299" type="line"/>
      <point x="118" y="299" type="line"/>
      <point x="270" y="207" type="line"/>
      <point x="294" y="221" type="line"/>
      <point x="150" y="417" type="line"/>
      <point x="118" y="417" type="line"/>
      <point x="-26" y="221" type="line"/>
    </contour>
    <contour>
      <point x="134.0" y="520.0" type="move" name="_top"/>
    </contour>
  </outline>
</glyph>
<glyph name="grave" format="1">
  <advance width="268"/>
  <unicode hex="0060"/>
  <outline>
    <contour>
      <point x="260" y="540" type="line"/>
      <point x="-6" y="696" type="line"/>
      <point x="120" y="750" type="line"/>
      <point x="284" y="554" type="line"/>
    </contour>
    <contour>
      <point x="134.0" y="520.0" type="move" name="_top"/>
    </contour>
  </outline>
</glyph>
<glyph name="a" format="1">
  <advance width="488"/>
  <unicode hex="0061"/>
  <outline>
    <contour>
      <point x="278" y="476"/>
      <point x="284" y="450"/>
      <point x="284" y="390" type="curve" smooth="yes"/>
      <point x="284" y="310" type="line"/>
      <point x="146" y="250"/>
      <point x="36" y="210"/>
      <point x="36" y="100" type="curve" smooth="yes"/>
      <point x="36" y="32"/>
      <point x="84" y="-10"/>
      <point x="152" y="-10" type="curve"/>
      <point x="226" y="-10"/>
      <point x="261" y="45"/>
      <point x="278" y="76" type="curve"/>
      <point x="288" y="76" type="line"/>
      <point x="288" y="64" type="line" smooth="yes"/>
      <point x="288" y="14"/>
      <point x="314" y="-10"/>
      <point x="363" y="-10" type="curve"/>
      <point x="413" y="-10"/>
      <point x="442" y="15"/>
      <point x="494" y="66" type="curve"/>
      <point x="482" y="98" type="line"/>
      <point x="464" y="82"/>
      <point x="448" y="70"/>
      <point x="430" y="70" type="curve"/>
      <point x="408" y="70"/>
      <point x="398" y="86"/>
      <point x="400" y="124" type="curve" smooth="yes"/>
      <point x="414" y="380" type="line" smooth="yes"/>
      <point x="420" y="482"/>
      <point x="347" y="520"/>
      <point x="246" y="520" type="curve" smooth="yes"/>
      <point x="129" y="520"/>
      <point x="51" y="461"/>
      <point x="38" y="382" type="curve"/>
      <point x="48" y="372" type="line"/>
      <point x="174" y="384" type="line"/>
      <point x="190" y="440" type="line" smooth="yes"/>
      <point x="197" y="463"/>
      <point x="212" y="476"/>
      <point x="238" y="476" type="curve" smooth="yes"/>
    </contour>
    <contour>
      <point x="284" y="260" type="line"/>
      <point x="284" y="136" type="line"/>
      <point x="284" y="114"/>
      <point x="244" y="82"/>
      <point x="206" y="82" type="curve" smooth="yes"/>
      <point x="172" y="82"/>
      <point x="150" y="98"/>
      <point x="150" y="134" type="curve"/>
      <point x="150" y="182"/>
      <point x="201" y="228"/>
      <point x="274" y="270" type="curve"/>
    </contour>
    <contour>
      <point x="246" y="540" type="move" name="top"/>
    </contour>
  </outline>
</glyph>
<glyph name="b" format="1">
  <advance width="562"/>
  <unicode hex="0062"/>
  <outline>
    <contour>
      <point x="210" y="436" type="line"/>
      <point x="210" y="436" type="line"/>
      <point x="210" y="750" type="line"/>
      <point x="200" y="760" type="line"/>
      <point x="6" y="686" type="line"/>
      <point x="22" y="652" type="line"/>
      <point x="76" y="676" type="line" smooth="yes"/>
      <point x="86" y="666" type="line"/>
      <point x="86" y="-10" type="line"/>
      <point x="126" y="-10" type="line"/>
      <point x="126" y="74" type="line"/>
      <point x="210" y="74" type="line"/>
    </contour>
    <contour>
      <point x="136" y="74" type="line"/>
      <point x="174" y="34"/>
      <point x="220" y="-10"/>
      <point x="304" y="-10" type="curve" smooth="yes"/>
      <point x="420" y="-10"/>
      <point x="526" y="88"/>
      <point x="526" y="264" type="curve" smooth="yes"/>
      <point x="526" y="412"/>
      <point x="466" y="520"/>
      <point x="362" y="520" type="curve" smooth="yes"/>
      <point x="294" y="520"/>
      <point x="254" y="484"/>
      <point x="220" y="436" type="curve"/>
      <point x="210" y="436" type="line"/>
      <point x="210" y="382" type="line"/>
      <point x="220" y="404"/>
      <point x="239" y="438"/>
      <point x="292" y="438" type="curve"/>
      <point x="362" y="438"/>
      <point x="392" y="322"/>
      <point x="392" y="202" type="curve"/>
      <point x="392" y="108"/>
      <point x="370" y="38"/>
      <point x="308" y="38" type="curve"/>
      <point x="244" y="38"/>
      <point x="210" y="102"/>
      <point x="210" y="190" type="curve"/>
      <point x="136" y="190" type="line"/>
    </contour>
  </outline>
</glyph>
<glyph name="c" format="1">
  <advance width="482"/>
  <unicode hex="0063"/>
  <outline>
    <contour>
      <point x="258" y="520" type="curve" smooth="yes"/>
      <point x="108" y="520"/>
      <point x="36" y="372"/>
      <point x="36" y="240" type="curve" smooth="yes"/>
      <point x="36" y="92"/>
      <point x="110" y="-10"/>
      <point x="246" y="-10" type="curve" smooth="yes"/>
      <point x="398" y="-10"/>
      <point x="448" y="128"/>
      <point x="456" y="200" type="curve"/>
      <point x="432" y="214" type="line"/>
      <point x="412" y="160"/>
      <point x="368" y="112"/>
      <point x="282" y="112" type="curve" smooth="yes"/>
      <point x="188" y="112"/>
      <point x="134" y="182"/>
      <point x="134" y="296" type="curve"/>
      <point x="134" y="414"/>
      <point x="194" y="469"/>
      <point x="242" y="469" type="curve" smooth="yes"/>
      <point x="272" y="469"/>
      <point x="289" y="454"/>
      <point x="296" y="428" type="curve" smooth="yes"/>
      <point x="316" y="352" type="line"/>
      <point x="442" y="364" type="line"/>
      <point x="452" y="374" type="line"/>
      <point x="438" y="452"/>
      <point x="381" y="520"/>
    </contour>
    <contour>
      <point x="246" y="-10" type="move" name="bottom"/>
    </contour>
  </outline>
</glyph>
<glyph name="d" format="1">
  <advance width="572"/>
  <unicode hex="0064"/>
  <outline>
    <contour>
      <point x="352" y="320" type="curve" smooth="yes"/>
      <point x="352" y="128" type="line"/>
      <point x="344" y="106"/>
      <point x="322" y="72"/>
      <point x="278" y="72" type="curve" smooth="yes"/>
      <point x="200" y="72"/>
      <point x="170" y="188"/>
      <point x="170" y="308" type="curve"/>
      <point x="170" y="402"/>
      <point x="192" y="472"/>
      <point x="254" y="472" type="curve"/>
      <point x="318" y="472"/>
      <point x="352" y="408"/>
    </contour>
    <contour>
      <point x="352" y="666" type="line"/>
      <point x="352" y="466" type="line"/>
      <point x="392" y="466" type="line"/>
      <point x="362" y="500"/>
      <point x="313" y="520"/>
      <point x="258" y="520" type="curve" smooth="yes"/>
      <point x="142" y="520"/>
      <point x="36" y="412"/>
      <point x="36" y="236" type="curve"/>
      <point x="36" y="88"/>
      <point x="96" y="-10"/>
      <point x="210" y="-10" type="curve"/>
      <point x="276" y="-10"/>
      <point x="322" y="36"/>
      <point x="348" y="76" type="curve"/>
      <point x="358" y="76" type="line"/>
      <point x="351" y="0" type="line"/>
      <point x="361" y="-10" type="line"/>
      <point x="556" y="62" type="line"/>
      <point x="540" y="96" type="line"/>
      <point x="486" y="73" type="line" smooth="yes"/>
      <point x="476" y="83" type="line"/>
      <point x="476" y="750" type="line"/>
      <point x="466" y="760" type="line"/>
      <point x="272" y="686" type="line"/>
      <point x="288" y="652" type="line"/>
      <point x="342" y="676" type="line" smooth="yes"/>
    </contour>
  </outline>
</glyph>
<glyph name="e" format="1">
  <advance width="492"/>
  <unicode hex="0065"/>
  <outline>
    <contour>
      <point x="242" y="476" type="curve" smooth="yes"/>
      <point x="296" y="476"/>
      <point x="310" y="432"/>
      <point x="310" y="372" type="curve"/>
      <point x="300" y="362" type="line"/>
      <point x="110" y="356" type="line"/>
      <point x="110" y="320" type="line"/>
      <point x="448" y="320" type="line"/>
      <point x="448" y="476"/>
      <point x="346" y="520"/>
      <point x="258" y="520" type="curve" smooth="yes"/>
      <point x="108" y="520"/>
      <point x="36" y="364"/>
      <point x="36" y="240" type="curve" smooth="yes"/>
      <point x="36" y="92"/>
      <point x="116" y="-10"/>
      <point x="246" y="-10" type="curve" smooth="yes"/>
      <point x="398" y="-10"/>
      <point x="448" y="128"/>
      <point x="456" y="200" type="curve"/>
      <point x="432" y="214" type="line"/>
      <point x="412" y="160"/>
      <point x="368" y="112"/>
      <point x="282" y="112" type="curve" smooth="yes"/>
      <point x="188" y="112"/>
      <point x="134" y="182"/>
      <point x="134" y="292" type="curve" smooth="yes"/>
      <point x="134" y="422"/>
      <point x="188" y="476"/>
    </contour>
    <contour>
      <point x="246" y="540" type="move" name="top"/>
    </contour>
  </outline>
</glyph>
<glyph name="f" format="1">
  <advance width="344"/>
  <unicode hex="0066"/>
  <outline>
    <contour>
      <point x="26" y="470" type="line"/>
      <point x="366" y="470" type="line"/>
      <point x="366" y="510" type="line"/>
      <point x="26" y="510" type="line"/>
    </contour>
    <contour>
      <point x="402" y="652" type="line"/>
      <point x="418" y="750" type="line"/>
      <point x="408" y="760" type="line"/>
      <point x="320" y="756" type="line" smooth="yes"/>
      <point x="222" y="752"/>
      <point x="166" y="632"/>
      <point x="106" y="510" type="curve"/>
      <point x="106" y="38" type="line"/>
      <point x="230" y="38" type="line"/>
      <point x="230" y="510" type="line"/>
      <point x="218" y="590" type="line" smooth="yes"/>
      <point x="212" y="630"/>
      <point x="228" y="652"/>
      <point x="278" y="652" type="curve" smooth="yes"/>
    </contour>
    <contour>
      <point x="106" y="44" type="line"/>
      <point x="96" y="34" type="line"/>
      <point x="26" y="34" type="line"/>
      <point x="26" y="0" type="line"/>
      <point x="324" y="0" type="line"/>
      <point x="324" y="34" type="line"/>
      <point x="240" y="34" type="line"/>
      <point x="230" y="44" type="line"/>
    </contour>
  </outline>
</glyph>
<glyph name="g" format="1">
  <advance width="506"/>
  <unicode hex="0067"/>
  <outline>
    <contour>
      <point x="14" y="-122" type="line"/>
      <point x="14" y="-180"/>
      <point x="42" y="-260"/>
      <point x="182" y="-260" type="curve" smooth="yes"/>
      <point x="336" y="-260"/>
      <point x="496" y="-150"/>
      <point x="496" y="-37" type="curve" smooth="yes"/>
      <point x="496" y="44"/>
      <point x="438" y="96"/>
      <point x="372" y="96" type="curve" smooth="yes"/>
      <point x="215" y="96" type="line" smooth="yes"/>
      <point x="181" y="96"/>
      <point x="168" y="104"/>
      <point x="168" y="126" type="curve" smooth="yes"/>
      <point x="168" y="136"/>
      <point x="173" y="151"/>
      <point x="178" y="160" type="curve" smooth="yes"/>
      <point x="192" y="184" type="line"/>
      <point x="192" y="196" type="line"/>
      <point x="154" y="196" type="line"/>
      <point x="154" y="186" type="line"/>
      <point x="64" y="72" type="line"/>
      <point x="58" y="58" type="line"/>
      <point x="58" y="26"/>
      <point x="68" y="10"/>
      <point x="102" y="0" type="curve"/>
      <point x="102" y="-10" type="line"/>
      <point x="20" y="-108" type="line"/>
    </contour>
    <contour>
      <point x="362" y="-10" type="line" smooth="yes"/>
      <point x="408" y="-10"/>
      <point x="444" y="-20"/>
      <point x="444" y="-56" type="curve" smooth="yes"/>
      <point x="444" y="-116"/>
      <point x="368" y="-150"/>
      <point x="226" y="-150" type="curve" smooth="yes"/>
      <point x="136" y="-150"/>
      <point x="114" y="-116"/>
      <point x="114" y="-78" type="curve" smooth="yes"/>
      <point x="114" y="-64"/>
      <point x="120" y="-43"/>
      <point x="128" y="-28" type="curve" smooth="yes"/>
      <point x="138" y="-10" type="line"/>
    </contour>
    <contour>
      <point x="60" y="348" type="curve" smooth="yes"/>
      <point x="60" y="234"/>
      <point x="156" y="174"/>
      <point x="248" y="174" type="curve" smooth="yes"/>
      <point x="338" y="174"/>
      <point x="434" y="238"/>
      <point x="434" y="348" type="curve" smooth="yes"/>
      <point x="434" y="464"/>
      <point x="338" y="520"/>
      <point x="246" y="520" type="curve" smooth="yes"/>
      <point x="156" y="520"/>
      <point x="60" y="464"/>
    </contour>
    <contour>
      <point x="182" y="376" type="curve"/>
      <point x="182" y="446"/>
      <point x="200" y="474"/>
      <point x="232" y="474" type="curve" smooth="yes"/>
      <point x="281" y="474"/>
      <point x="312" y="406"/>
      <point x="312" y="320" type="curve" smooth="yes"/>
      <point x="312" y="256"/>
      <point x="300" y="220"/>
      <point x="262" y="220" type="curve" smooth="yes"/>
      <point x="218" y="220"/>
      <point x="182" y="282"/>
    </contour>
    <contour>
      <point x="298" y="458" type="line"/>
      <point x="394" y="458" type="line"/>
      <point x="394" y="470" type="line"/>
      <point x="494" y="470" type="line"/>
      <point x="494" y="510" type="line"/>
      <point x="298" y="510" type="line"/>
    </contour>
  </outline>
</glyph>
<glyph name="h" format="1">
  <advance width="596"/>
  <unicode hex="0068"/>
  <outline>
    <contour>
      <point x="106" y="44" type="line"/>
      <point x="96" y="34" type="line"/>
      <point x="28" y="34" type="line"/>
      <point x="28" y="0" type="line"/>
      <point x="282" y="0" type="line"/>
      <point x="282" y="34" type="line"/>
      <point x="240" y="34" type="line"/>
      <point x="230" y="44" type="line"/>
      <point x="230" y="380" type="line"/>
      <point x="244" y="404"/>
      <point x="260" y="438"/>
      <point x="318" y="438" type="curve" smooth="yes"/>
      <point x="358" y="438"/>
      <point x="384" y="418"/>
      <point x="384" y="364" type="curve" smooth="yes"/>
      <point x="384" y="44" type="line"/>
      <point x="374" y="34" type="line"/>
      <point x="332" y="34" type="line"/>
      <point x="332" y="0" type="line"/>
      <point x="580" y="0" type="line"/>
      <point x="580" y="34" type="line"/>
      <point x="518" y="34" type="line"/>
      <point x="508" y="44" type="line"/>
      <point x="508" y="380" type="line" smooth="yes"/>
      <point x="508" y="476"/>
      <point x="448" y="520"/>
      <point x="374" y="520" type="curve" smooth="yes"/>
      <point x="298" y="520"/>
      <point x="264" y="472"/>
      <point x="240" y="434" type="curve"/>
      <point x="230" y="434" type="line"/>
      <point x="230" y="750" type="line"/>
      <point x="220" y="760" type="line"/>
      <point x="26" y="686" type="line"/>
      <point x="42" y="652" type="line"/>
      <point x="96" y="676" type="line" smooth="yes"/>
      <point x="106" y="666" type="line"/>
    </contour>
  </outline>
</glyph>
<glyph name="i" format="1">
  <advance width="318"/>
  <unicode hex="0069"/>
  <outline>
    <contour>
      <point x="98" y="612" type="line"/>
      <point x="236" y="612" type="line"/>
      <point x="236" y="750" type="line"/>
      <point x="98" y="750" type="line"/>
    </contour>
    <contour>
      <point x="106" y="44" type="line"/>
      <point x="96" y="34" type="line"/>
      <point x="28" y="34" type="line"/>
      <point x="28" y="0" type="line"/>
      <point x="302" y="0" type="line"/>
      <point x="302" y="34" type="line"/>
      <point x="240" y="34" type="line"/>
      <point x="230" y="44" type="line"/>
    </contour>
    <contour>
      <point x="42" y="412" type="line"/>
      <point x="96" y="436" type="line" smooth="yes"/>
      <point x="106" y="426" type="line"/>
      <point x="106" y="0" type="line"/>
      <point x="230" y="0" type="line"/>
      <point x="230" y="510" type="line"/>
      <point x="220" y="520" type="line"/>
      <point x="26" y="446" type="line"/>
    </contour>
  </outline>
</glyph>
<glyph name="j" format="1">
  <advance width="300"/>
  <unicode hex="006A"/>
  <outline>
    <contour>
      <point x="232" y="510" type="line"/>
      <point x="222" y="520" type="line"/>
      <point x="18" y="446" type="line"/>
      <point x="34" y="412" type="line"/>
      <point x="88" y="432" type="line" smooth="yes"/>
      <point x="98" y="422" type="line"/>
      <point x="106" y="-70" type="line" smooth="yes"/>
      <point x="107" y="-144"/>
      <point x="80" y="-152"/>
      <point x="28" y="-152" type="curve" smooth="yes"/>
      <point x="-58" y="-152" type="line"/>
      <point x="-74" y="-250" type="line"/>
      <point x="-64" y="-260" type="line"/>
      <point x="2" y="-255" type="line" smooth="yes"/>
      <point x="78" y="-249"/>
      <point x="222" y="-109"/>
      <point x="224" y="26" type="curve" smooth="yes"/>
    </contour>
    <contour>
      <point x="98" y="612" type="line"/>
      <point x="236" y="612" type="line"/>
      <point x="236" y="750" type="line"/>
      <point x="98" y="750" type="line"/>
    </contour>
  </outline>
</glyph>
<glyph name="k" format="1">
  <advance width="576"/>
  <unicode hex="006B"/>
  <outline>
    <contour>
      <point x="570" y="34" type="line"/>
      <point x="528" y="34" type="line"/>
      <point x="512" y="44" type="line"/>
      <point x="332" y="332" type="line"/>
      <point x="392" y="382"/>
      <point x="427" y="417"/>
      <point x="506" y="476" type="curve"/>
      <point x="558" y="476" type="line"/>
      <point x="558" y="510" type="line"/>
      <point x="356" y="510" type="line"/>
      <point x="356" y="476" type="line"/>
      <point x="398" y="476" type="line"/>
      <point x="408" y="466" type="line"/>
      <point x="346" y="408"/>
      <point x="324" y="378"/>
      <point x="240" y="302" type="curve"/>
      <point x="230" y="302" type="line"/>
      <point x="230" y="268" type="line"/>
      <point x="240" y="268" type="line"/>
      <point x="370" y="44" type="line"/>
      <point x="360" y="34" type="line"/>
      <point x="318" y="34" type="line"/>
      <point x="318" y="0" type="line"/>
      <point x="570" y="0" type="line"/>
    </contour>
    <contour>
      <point x="106" y="44" type="line"/>
      <point x="96" y="34" type="line"/>
      <point x="28" y="34" type="line"/>
      <point x="28" y="0" type="line"/>
      <point x="282" y="0" type="line"/>
      <point x="282" y="34" type="line"/>
      <point x="240" y="34" type="line"/>
      <point x="230" y="44" type="line"/>
    </contour>
    <contour>
      <point x="42" y="652" type="line"/>
      <point x="96" y="676" type="line" smooth="yes"/>
      <point x="106" y="666" type="line"/>
      <point x="106" y="0" type="line"/>
      <point x="230" y="0" type="line"/>
      <point x="230" y="750" type="line"/>
      <point x="220" y="760" type="line"/>
      <point x="26" y="686" type="line"/>
    </contour>
  </outline>
</glyph>
<glyph name="l" format="1">
  <advance width="328"/>
  <unicode hex="006C"/>
  <outline>
    <contour>
      <point x="106" y="44" type="line"/>
      <point x="96" y="34" type="line"/>
      <point x="28" y="34" type="line"/>
      <point x="28" y="0" type="line"/>
      <point x="302" y="0" type="line"/>
      <point x="302" y="34" type="line"/>
      <point x="240" y="34" type="line"/>
      <point x="230" y="44" type="line"/>
    </contour>
    <contour>
      <point x="42" y="652" type="line"/>
      <point x="96" y="676" type="line" smooth="yes"/>
      <point x="106" y="666" type="line"/>
      <point x="106" y="0" type="line"/>
      <point x="230" y="0" type="line"/>
      <point x="230" y="750" type="line"/>
      <point x="220" y="760" type="line"/>
      <point x="26" y="686" type="line"/>
    </contour>
  </outline>
</glyph>
<glyph name="m" format="1">
  <advance width="866"/>
  <unicode hex="006D"/>
  <outline>
    <contour>
      <point x="106" y="44" type="line"/>
      <point x="96" y="34" type="line"/>
      <point x="28" y="34" type="line"/>
      <point x="28" y="0" type="line"/>
      <point x="282" y="0" type="line"/>
      <point x="282" y="34" type="line"/>
      <point x="240" y="34" type="line"/>
      <point x="230" y="44" type="line"/>
    </contour>
    <contour>
      <point x="380" y="44" type="line"/>
      <point x="370" y="34" type="line"/>
      <point x="328" y="34" type="line"/>
      <point x="328" y="0" type="line"/>
      <point x="556" y="0" type="line"/>
      <point x="556" y="34" type="line"/>
      <point x="514" y="34" type="line"/>
      <point x="504" y="44" type="line"/>
    </contour>
    <contour>
      <point x="231" y="510" type="line"/>
      <point x="221" y="520" type="line"/>
      <point x="26" y="448" type="line"/>
      <point x="42" y="414" type="line"/>
      <point x="96" y="437" type="line" smooth="yes"/>
      <point x="106" y="427" type="line"/>
      <point x="106" y="0" type="line"/>
      <point x="230" y="0" type="line"/>
      <point x="230" y="380" type="line"/>
      <point x="246" y="408"/>
      <point x="282" y="438"/>
      <point x="316" y="438" type="curve"/>
      <point x="356" y="438"/>
      <point x="380" y="416"/>
      <point x="380" y="364" type="curve" smooth="yes"/>
      <point x="380" y="0" type="line"/>
      <point x="504" y="0" type="line"/>
      <point x="504" y="380" type="line" smooth="yes"/>
      <point x="504" y="474"/>
      <point x="450" y="520"/>
      <point x="376" y="520" type="curve"/>
      <point x="306" y="520"/>
      <point x="254" y="460"/>
      <point x="234" y="434" type="curve"/>
      <point x="224" y="434" type="line"/>
    </contour>
    <contour>
      <point x="654" y="44" type="line"/>
      <point x="644" y="34" type="line"/>
      <point x="602" y="34" type="line"/>
      <point x="602" y="0" type="line"/>
      <point x="850" y="0" type="line"/>
      <point x="850" y="34" type="line"/>
      <point x="788" y="34" type="line"/>
      <point x="778" y="44" type="line"/>
    </contour>
    <contour>
      <point x="504" y="380" type="line"/>
      <point x="520" y="408"/>
      <point x="556" y="438"/>
      <point x="590" y="438" type="curve"/>
      <point x="630" y="438"/>
      <point x="654" y="416"/>
      <point x="654" y="364" type="curve" smooth="yes"/>
      <point x="654" y="0" type="line"/>
      <point x="778" y="0" type="line"/>
      <point x="778" y="380" type="line" smooth="yes"/>
      <point x="778" y="474"/>
      <point x="724" y="520"/>
      <point x="650" y="520" type="curve"/>
      <point x="580" y="520"/>
      <point x="528" y="460"/>
      <point x="508" y="434" type="curve"/>
      <point x="496" y="434" type="line"/>
      <point x="496" y="380" type="line"/>
    </contour>
  </outline>
</glyph>
<glyph name="n" format="1">
  <advance width="596"/>
  <unicode hex="006E"/>
  <outline>
    <contour>
      <point x="106" y="44" type="line"/>
      <point x="96" y="34" type="line"/>
      <point x="28" y="34" type="line"/>
      <point x="28" y="0" type="line"/>
      <point x="282" y="0" type="line"/>
      <point x="282" y="34" type="line"/>
      <point x="240" y="34" type="line"/>
      <point x="230" y="44" type="line"/>
    </contour>
    <contour>
      <point x="384" y="44" type="line"/>
      <point x="374" y="34" type="line"/>
      <point x="332" y="34" type="line"/>
      <point x="332" y="0" type="line"/>
      <point x="580" y="0" type="line"/>
      <point x="580" y="34" type="line"/>
      <point x="518" y="34" type="line"/>
      <point x="508" y="44" type="line"/>
    </contour>
    <contour>
      <point x="231" y="510" type="line"/>
      <point x="221" y="520" type="line"/>
      <point x="26" y="448" type="line"/>
      <point x="42" y="414" type="line"/>
      <point x="96" y="437" type="line" smooth="yes"/>
      <point x="106" y="427" type="line"/>
      <point x="106" y="0" type="line"/>
      <point x="230" y="0" type="line"/>
      <point x="230" y="386" type="line"/>
      <point x="242" y="406"/>
      <point x="268" y="438"/>
      <point x="316" y="438" type="curve"/>
      <point x="358" y="438"/>
      <point x="384" y="418"/>
      <point x="384" y="364" type="curve" smooth="yes"/>
      <point x="384" y="0" type="line"/>
      <point x="508" y="0" type="line"/>
      <point x="508" y="380" type="line" smooth="yes"/>
      <point x="508" y="476"/>
      <point x="448" y="520"/>
      <point x="374" y="520" type="curve"/>
      <point x="298" y="520"/>
      <point x="262" y="472"/>
      <point x="234" y="434" type="curve"/>
      <point x="224" y="434" type="line"/>
    </contour>
    <contour>
      <point x="286" y="520" type="move" name="top"/>
    </contour>
  </outline>
</glyph>
<glyph name="o" format="1">
  <advance width="556"/>
  <unicode hex="006F"/>
  <outline>
    <contour>
      <point x="36" y="255" type="curve" smooth="yes"/>
      <point x="36" y="99"/>
      <point x="134" y="-10"/>
      <point x="278" y="-10" type="curve" smooth="yes"/>
      <point x="424" y="-10"/>
      <point x="520" y="105"/>
      <point x="520" y="257" type="curve"/>
      <point x="520" y="411"/>
      <point x="422" y="520"/>
      <point x="278" y="520" type="curve" smooth="yes"/>
      <point x="132" y="520"/>
      <point x="36" y="404"/>
    </contour>
    <contour>
      <point x="176" y="305" type="curve"/>
      <point x="176" y="389"/>
      <point x="194" y="472"/>
      <point x="260" y="472" type="curve"/>
      <point x="347" y="472"/>
      <point x="380" y="351"/>
      <point x="380" y="207" type="curve"/>
      <point x="380" y="121"/>
      <point x="362" y="38"/>
      <point x="296" y="38" type="curve"/>
      <point x="210" y="38"/>
      <point x="176" y="159"/>
    </contour>
    <contour>
      <point x="276" y="520" type="move" name="top"/>
    </contour>
  </outline>
</glyph>
<glyph name="p" format="1">
  <advance width="572"/>
  <unicode hex="0070"/>
  <outline>
    <contour>
      <point x="96" y="-206" type="line"/>
      <point x="86" y="-216" type="line"/>
      <point x="18" y="-216" type="line"/>
      <point x="18" y="-250" type="line"/>
      <point x="312" y="-250" type="line"/>
      <point x="312" y="-216" type="line"/>
      <point x="230" y="-216" type="line"/>
      <point x="220" y="-206" type="line"/>
      <point x="220" y="44" type="line"/>
      <point x="180" y="44" type="line"/>
      <point x="210" y="10"/>
      <point x="259" y="-10"/>
      <point x="314" y="-10" type="curve" smooth="yes"/>
      <point x="430" y="-10"/>
      <point x="536" y="88"/>
      <point x="536" y="264" type="curve"/>
      <point x="536" y="412"/>
      <point x="476" y="520"/>
      <point x="372" y="520" type="curve"/>
      <point x="297" y="520"/>
      <point x="250" y="474"/>
      <point x="224" y="434" type="curve"/>
      <point x="214" y="434" type="line"/>
      <point x="221" y="510" type="line"/>
      <point x="211" y="520" type="line"/>
      <point x="16" y="448" type="line"/>
      <point x="32" y="414" type="line"/>
      <point x="86" y="437" type="line" smooth="yes"/>
      <point x="96" y="427" type="line"/>
    </contour>
    <contour>
      <point x="220" y="190" type="curve" smooth="yes"/>
      <point x="220" y="382" type="line"/>
      <point x="228" y="404"/>
      <point x="250" y="438"/>
      <point x="294" y="438" type="curve"/>
      <point x="372" y="438"/>
      <point x="402" y="322"/>
      <point x="402" y="202" type="curve"/>
      <point x="402" y="108"/>
      <point x="380" y="38"/>
      <point x="318" y="38" type="curve"/>
      <point x="254" y="38"/>
      <point x="220" y="102"/>
    </contour>
  </outline>
</glyph>
<glyph name="q" format="1">
  <advance width="554"/>
  <unicode hex="0071"/>
  <outline>
    <contour>
      <point x="352" y="-206" type="line"/>
      <point x="342" y="-216" type="line"/>
      <point x="263" y="-216" type="line"/>
      <point x="263" y="-250" type="line"/>
      <point x="548" y="-250" type="line"/>
      <point x="548" y="-216" type="line"/>
      <point x="486" y="-216" type="line"/>
      <point x="476" y="-206" type="line"/>
    </contour>
    <contour>
      <point x="352" y="74" type="line"/>
      <point x="352" y="-250" type="line"/>
      <point x="476" y="-250" type="line"/>
      <point x="476" y="520" type="line"/>
      <point x="436" y="520" type="line"/>
      <point x="436" y="436" type="line"/>
      <point x="352" y="436" type="line"/>
      <point x="352" y="74" type="line"/>
    </contour>
    <contour>
      <point x="426" y="436" type="line"/>
      <point x="392" y="476"/>
      <point x="342" y="520"/>
      <point x="258" y="520" type="curve"/>
      <point x="142" y="520"/>
      <point x="36" y="412"/>
      <point x="36" y="236" type="curve"/>
      <point x="36" y="88"/>
      <point x="96" y="-10"/>
      <point x="210" y="-10" type="curve"/>
      <point x="268" y="-10"/>
      <point x="318" y="28"/>
      <point x="342" y="74" type="curve"/>
      <point x="352" y="74" type="line"/>
      <point x="352" y="128" type="line"/>
      <point x="344" y="106"/>
      <point x="323" y="72"/>
      <point x="280" y="72" type="curve"/>
      <point x="200" y="72"/>
      <point x="170" y="178"/>
      <point x="170" y="298" type="curve"/>
      <point x="170" y="392"/>
      <point x="192" y="472"/>
      <point x="254" y="472" type="curve"/>
      <point x="318" y="472"/>
      <point x="352" y="408"/>
      <point x="352" y="321" type="curve"/>
      <point x="426" y="321" type="line"/>
    </contour>
  </outline>
</glyph>
<glyph name="r" format="1">
  <advance width="404"/>
  <unicode hex="0072"/>
  <outline>
    <contour>
      <point x="230" y="0" type="line"/>
      <point x="230" y="340" type="line"/>
      <point x="242" y="390"/>
      <point x="268" y="402"/>
      <point x="330" y="402" type="curve"/>
      <point x="382" y="402" type="line"/>
      <point x="398" y="510" type="line"/>
      <point x="388" y="520" type="line"/>
      <point x="336" y="516" type="line" smooth="yes"/>
      <point x="282" y="512"/>
      <point x="244" y="454"/>
      <point x="230" y="396" type="curve"/>
      <point x="210" y="396" type="line"/>
      <point x="230" y="510" type="line"/>
      <point x="220" y="520" type="line"/>
      <point x="26" y="446" type="line"/>
      <point x="42" y="412" type="line"/>
      <point x="96" y="436" type="line" smooth="yes"/>
      <point x="106" y="426" type="line"/>
      <point x="106" y="0" type="line"/>
    </contour>
    <contour>
      <point x="106" y="44" type="line"/>
      <point x="96" y="34" type="line"/>
      <point x="28" y="34" type="line"/>
      <point x="28" y="0" type="line"/>
      <point x="314" y="0" type="line"/>
      <point x="314" y="34" type="line"/>
      <point x="240" y="34" type="line"/>
      <point x="230" y="44" type="line"/>
    </contour>
  </outline>
</glyph>
<glyph name="s" format="1">
  <advance width="416"/>
  <unicode hex="0073"/>
  <outline>
    <contour>
      <point x="346" y="350" type="line"/>
      <point x="346" y="520" type="line"/>
      <point x="310" y="520" type="line"/>
      <point x="310" y="500" type="line"/>
      <point x="300" y="500" type="line"/>
      <point x="284" y="506"/>
      <point x="250" y="520"/>
      <point x="198" y="520" type="curve" smooth="yes"/>
      <point x="112" y="520"/>
      <point x="48" y="463"/>
      <point x="48" y="376" type="curve"/>
      <point x="48" y="282"/>
      <point x="100" y="242"/>
      <point x="175" y="199" type="curve" smooth="yes"/>
      <point x="234" y="166"/>
      <point x="266" y="141"/>
      <point x="266" y="92" type="curve"/>
      <point x="266" y="48"/>
      <point x="236" y="28"/>
      <point x="196" y="28" type="curve"/>
      <point x="124" y="28"/>
      <point x="82" y="101"/>
      <point x="82" y="170" type="curve" smooth="yes"/>
      <point x="82" y="182" type="line"/>
      <point x="46" y="182" type="line"/>
      <point x="46" y="-10" type="line"/>
      <point x="82" y="-10" type="line"/>
      <point x="82" y="10" type="line"/>
      <point x="92" y="10" type="line"/>
      <point x="110" y="6"/>
      <point x="150" y="-10"/>
      <point x="220" y="-10" type="curve" smooth="yes"/>
      <point x="316" y="-10"/>
      <point x="384" y="43"/>
      <point x="384" y="143" type="curve"/>
      <point x="384" y="238"/>
      <point x="318" y="266"/>
      <point x="215" y="327" type="curve" smooth="yes"/>
      <point x="166" y="356"/>
      <point x="158" y="388"/>
      <point x="158" y="416" type="curve"/>
      <point x="158" y="454"/>
      <point x="182" y="476"/>
      <point x="214" y="476" type="curve"/>
      <point x="274" y="476"/>
      <point x="310" y="420"/>
      <point x="310" y="364" type="curve" smooth="yes"/>
      <point x="310" y="350" type="line"/>
    </contour>
  </outline>
</glyph>
<glyph name="t" format="1">
  <advance width="328"/>
  <unicode hex="0074"/>
  <outline>
    <contour>
      <point x="120" y="470" type="line"/>
      <point x="308" y="470" type="line"/>
      <point x="308" y="510" type="line"/>
      <point x="120" y="510" type="line"/>
    </contour>
    <contour>
      <point x="212" y="620" type="line"/>
      <point x="202" y="620" type="line"/>
      <point x="16" y="480" type="line"/>
      <point x="26" y="470" type="line"/>
      <point x="88" y="470" type="line"/>
      <point x="88" y="104" type="line" smooth="yes"/>
      <point x="88" y="22"/>
      <point x="128" y="-10"/>
      <point x="190" y="-10" type="curve"/>
      <point x="255" y="-10"/>
      <point x="298" y="46"/>
      <point x="322" y="74" type="curve"/>
      <point x="306" y="108" type="line"/>
      <point x="288" y="84"/>
      <point x="272" y="60"/>
      <point x="246" y="60" type="curve" smooth="yes"/>
      <point x="222" y="60"/>
      <point x="212" y="80"/>
      <point x="212" y="112" type="curve" smooth="yes"/>
    </contour>
  </outline>
</glyph>
<glyph name="u" format="1">
  <advance width="586"/>
  <unicode hex="0075"/>
  <outline>
    <contour>
      <point x="490" y="466" type="line"/>
      <point x="490" y="510" type="line"/>
      <point x="294" y="510" type="line"/>
      <point x="294" y="476" type="line"/>
      <point x="356" y="476" type="line"/>
      <point x="366" y="466" type="line"/>
    </contour>
    <contour>
      <point x="212" y="466" type="line"/>
      <point x="212" y="510" type="line"/>
      <point x="16" y="510" type="line"/>
      <point x="16" y="476" type="line"/>
      <point x="78" y="476" type="line"/>
      <point x="88" y="466" type="line"/>
    </contour>
    <contour>
      <point x="365" y="0" type="line"/>
      <point x="375" y="-10" type="line"/>
      <point x="570" y="62" type="line"/>
      <point x="554" y="96" type="line"/>
      <point x="500" y="73" type="line" smooth="yes"/>
      <point x="490" y="83" type="line"/>
      <point x="490" y="510" type="line"/>
      <point x="366" y="510" type="line"/>
      <point x="366" y="124" type="line"/>
      <point x="354" y="104"/>
      <point x="328" y="72"/>
      <point x="280" y="72" type="curve"/>
      <point x="238" y="72"/>
      <point x="212" y="92"/>
      <point x="212" y="146" type="curve" smooth="yes"/>
      <point x="212" y="510" type="line"/>
      <point x="88" y="510" type="line"/>
      <point x="88" y="130" type="line" smooth="yes"/>
      <point x="88" y="34"/>
      <point x="148" y="-10"/>
      <point x="222" y="-10" type="curve"/>
      <point x="298" y="-10"/>
      <point x="334" y="38"/>
      <point x="362" y="76" type="curve"/>
      <point x="372" y="76" type="line"/>
    </contour>
    <contour>
      <point x="266" y="520" type="move" name="top"/>
    </contour>
  </outline>
</glyph>
<glyph name="v" format="1">
  <advance width="494"/>
  <unicode hex="0076"/>
  <outline>
    <contour>
      <point x="458" y="466" type="line"/>
      <point x="468" y="476" type="line"/>
      <point x="508" y="476" type="line"/>
      <point x="508" y="510" type="line"/>
      <point x="334" y="510" type="line"/>
      <point x="334" y="476" type="line"/>
      <point x="388" y="476" type="line"/>
      <point x="398" y="466" type="line"/>
      <point x="283" y="162" type="line"/>
      <point x="273" y="162" type="line"/>
      <point x="182" y="466" type="line"/>
      <point x="192" y="476" type="line"/>
      <point x="246" y="476" type="line"/>
      <point x="246" y="510" type="line"/>
      <point x="-4" y="510" type="line"/>
      <point x="-4" y="476" type="line"/>
      <point x="40" y="476" type="line"/>
      <point x="50" y="466" type="line"/>
      <point x="222" y="-10" type="line"/>
      <point x="252" y="-10" type="line"/>
    </contour>
  </outline>
</glyph>
<glyph name="w" format="1">
  <advance width="746"/>
  <unicode hex="0077"/>
  <outline>
    <contour>
      <point x="438" y="420" type="line"/>
      <point x="382" y="420" type="line"/>
      <point x="287" y="172" type="line"/>
      <point x="277" y="172" type="line"/>
      <point x="186" y="466" type="line"/>
      <point x="196" y="476" type="line"/>
      <point x="236" y="476" type="line"/>
      <point x="236" y="510" type="line"/>
      <point x="-4" y="510" type="line"/>
      <point x="-4" y="476" type="line"/>
      <point x="40" y="476" type="line"/>
      <point x="50" y="466" type="line"/>
      <point x="222" y="-10" type="line"/>
      <point x="252" y="-10" type="line"/>
    </contour>
    <contour>
      <point x="710" y="466" type="line"/>
      <point x="720" y="476" type="line"/>
      <point x="760" y="476" type="line"/>
      <point x="760" y="510" type="line"/>
      <point x="586" y="510" type="line"/>
      <point x="586" y="476" type="line"/>
      <point x="640" y="476" type="line"/>
      <point x="650" y="466" type="line"/>
      <point x="555" y="172" type="line"/>
      <point x="545" y="172" type="line"/>
      <point x="454" y="466" type="line"/>
      <point x="464" y="476" type="line"/>
      <point x="518" y="476" type="line"/>
      <point x="518" y="510" type="line"/>
      <point x="298" y="510" type="line"/>
      <point x="298" y="476" type="line"/>
      <point x="312" y="476" type="line"/>
      <point x="322" y="466" type="line"/>
      <point x="494" y="-10" type="line"/>
      <point x="524" y="-10" type="line"/>
    </contour>
  </outline>
</glyph>
<glyph name="x" format="1">
  <advance width="512"/>
  <unicode hex="0078"/>
  <outline>
    <contour>
      <point x="484" y="34" type="line"/>
      <point x="522" y="34" type="line"/>
      <point x="522" y="0" type="line"/>
      <point x="276" y="0" type="line"/>
      <point x="276" y="34" type="line"/>
      <point x="324" y="34" type="line"/>
      <point x="334" y="44" type="line"/>
      <point x="55" y="466" type="line"/>
      <point x="45" y="476" type="line"/>
      <point x="7" y="476" type="line"/>
      <point x="7" y="510" type="line"/>
      <point x="253" y="510" type="line"/>
      <point x="253" y="476" type="line"/>
      <point x="205" y="476" type="line"/>
      <point x="195" y="466" type="line"/>
      <point x="474" y="44" type="line"/>
    </contour>
    <contour>
      <point x="129" y="44" type="line"/>
      <point x="139" y="34" type="line"/>
      <point x="179" y="34" type="line"/>
      <point x="179" y="0" type="line"/>
      <point x="-10" y="0" type="line"/>
      <point x="-10" y="34" type="line"/>
      <point x="40" y="34" type="line"/>
      <point x="50" y="44" type="line"/>
      <point x="240" y="280" type="line"/>
      <point x="280" y="337" type="line"/>
      <point x="290" y="337" type="line"/>
      <point x="360" y="466" type="line"/>
      <point x="350" y="476" type="line"/>
      <point x="312" y="476" type="line"/>
      <point x="312" y="510" type="line"/>
      <point x="499" y="510" type="line"/>
      <point x="499" y="476" type="line"/>
      <point x="447" y="476" type="line"/>
      <point x="437" y="466" type="line"/>
      <point x="271" y="246" type="line"/>
      <point x="231" y="200" type="line"/>
      <point x="221" y="200" type="line"/>
    </contour>
  </outline>
</glyph>
<glyph name="y" format="1">
  <advance width="494"/>
  <unicode hex="0079"/>
  <outline>
    <contour>
      <point x="246" y="510" type="line"/>
      <point x="-4" y="510" type="line"/>
      <point x="-4" y="476" type="line"/>
      <point x="40" y="476" type="line"/>
      <point x="50" y="466" type="line"/>
      <point x="226" y="-10" type="line"/>
      <point x="202" y="-62" type="line" smooth="yes"/>
      <point x="171" y="-129"/>
      <point x="142" y="-152"/>
      <point x="88" y="-152" type="curve" smooth="yes"/>
      <point x="22" y="-152" type="line"/>
      <point x="6" y="-250" type="line"/>
      <point x="16" y="-260" type="line"/>
      <point x="92" y="-255" type="line" smooth="yes"/>
      <point x="164" y="-250"/>
      <point x="186" y="-207"/>
      <point x="226" y="-108" type="curve" smooth="yes"/>
      <point x="458" y="466" type="line"/>
      <point x="468" y="476" type="line"/>
      <point x="508" y="476" type="line"/>
      <point x="508" y="510" type="line"/>
      <point x="334" y="510" type="line"/>
      <point x="334" y="476" type="line"/>
      <point x="388" y="476" type="line"/>
      <point x="398" y="466" type="line"/>
      <point x="288" y="162" type="line"/>
      <point x="278" y="162" type="line"/>
      <point x="182" y="466" type="line"/>
      <point x="192" y="476" type="line"/>
      <point x="246" y="476" type="line"/>
    </contour>
    <contour>
      <point x="276" y="520" type="move" name="top"/>
    </contour>
  </outline>
</glyph>
<glyph name="z" format="1">
  <advance width="460"/>
  <unicode hex="007A"/>
  <outline>
    <contour>
      <point x="190" y="44" type="line" smooth="yes"/>
      <point x="180" y="54" type="line"/>
      <point x="434" y="500" type="line"/>
      <point x="434" y="510" type="line"/>
      <point x="60" y="510" type="line"/>
      <point x="60" y="354" type="line"/>
      <point x="92" y="354" type="line"/>
      <point x="98" y="452"/>
      <point x="134" y="466"/>
      <point x="194" y="466" type="curve"/>
      <point x="264" y="466" type="line" smooth="yes"/>
      <point x="274" y="456" type="line"/>
      <point x="16" y="10" type="line"/>
      <point x="16" y="0" type="line"/>
      <point x="434" y="0" type="line"/>
      <point x="444" y="176" type="line"/>
      <point x="412" y="176" type="line"/>
      <point x="402" y="78"/>
      <point x="368" y="44"/>
      <point x="304" y="44" type="curve"/>
    </contour>
  </outline>
</glyph>
<glyph name="asciitilde" format="1">
  <advance width="268"/>
  <unicode hex="007E"/>
  <outline>
    <contour>
      <point x="294" y="350" type="curve"/>
      <point x="270" y="364" type="line"/>
      <point x="266" y="343"/>
      <point x="250" y="322"/>
      <point x="216" y="322" type="curve"/>
      <point x="165" y="322"/>
      <point x="139" y="392"/>
      <point x="74" y="392" type="curve"/>
      <point x="6" y="392"/>
      <point x="-21" y="323"/>
      <point x="-26" y="274" type="curve"/>
      <point x="-2" y="260" type="line"/>
      <point x="2" y="281"/>
      <point x="18" y="302"/>
      <point x="52" y="302" type="curve"/>
      <point x="103" y="302"/>
      <point x="128" y="232"/>
      <point x="194" y="232" type="curve"/>
      <point x="260" y="232"/>
      <point x="289" y="301"/>
    </contour>
    <contour>
      <point x="134.0" y="520.0" type="move" name="_top"/>
    </contour>
  </outline>
</glyph>
<glyph name="exclamdown" format="1">
  <advance width="268"/>
  <unicode hex="00A1"/>
  <outline>
    <contour>
      <point x="153" y="306" type="line"/>
      <point x="115" y="306" type="line"/>
      <point x="59" y="-240" type="line"/>
      <point x="59" y="-240"/>
      <point x="209" y="-240"/>
      <point x="209" y="-240" type="curve"/>
    </contour>
    <contour>
      <point x="64" y="510" type="line"/>
      <point x="64" y="370" type="line"/>
      <point x="204" y="370" type="line"/>
      <point x="204" y="510" type="line"/>
    </contour>
  </outline>
</glyph>
<glyph name="cent" format="1">
  <advance width="498"/>
  <unicode hex="00A2"/>
  <outline>
    <contour>
      <point x="106" y="0" type="line"/>
      <point x="146" y="0" type="line"/>
      <point x="354" y="750" type="line"/>
      <point x="316" y="750" type="line"/>
      <point x="177" y="247" type="line"/>
      <point x="164" y="247" type="line"/>
      <point x="172" y="236" type="line"/>
    </contour>
    <component base="c" xOffset="-6" yOffset="125"/>
  </outline>
</glyph>
<glyph name="sterling" format="1">
  <advance width="600"/>
  <unicode hex="00A3"/>
  <outline>
    <contour>
      <point x="394" y="358" type="line"/>
      <point x="394" y="392" type="line"/>
      <point x="34" y="392" type="line"/>
      <point x="34" y="358" type="line"/>
    </contour>
    <contour>
      <point x="546" y="0" type="line"/>
      <point x="546" y="220" type="line"/>
      <point x="508" y="220" type="line"/>
      <point x="508" y="180" type="line" smooth="yes"/>
      <point x="508" y="94"/>
      <point x="486" y="72"/>
      <point x="400" y="72" type="curve" smooth="yes"/>
      <point x="180" y="72" type="line"/>
      <point x="180" y="82" type="line"/>
      <point x="238" y="100"/>
      <point x="308" y="154"/>
      <point x="308" y="282" type="curve" smooth="yes"/>
      <point x="308" y="392"/>
      <point x="262" y="450"/>
      <point x="262" y="572" type="curve" smooth="yes"/>
      <point x="262" y="653"/>
      <point x="298" y="710"/>
      <point x="380" y="710" type="curve"/>
      <point x="464" y="710"/>
      <point x="507" y="650"/>
      <point x="507" y="528" type="curve" smooth="yes"/>
      <point x="507" y="488" type="line"/>
      <point x="545" y="488" type="line"/>
      <point x="545" y="750" type="line"/>
      <point x="507" y="750" type="line"/>
      <point x="507" y="706" type="line"/>
      <point x="497" y="706" type="line"/>
      <point x="472" y="726"/>
      <point x="426" y="760"/>
      <point x="348" y="760" type="curve" smooth="yes"/>
      <point x="208" y="760"/>
      <point x="124" y="651"/>
      <point x="124" y="520" type="curve" smooth="yes"/>
      <point x="124" y="389"/>
      <point x="184" y="300"/>
      <point x="184" y="184" type="curve"/>
      <point x="184" y="94"/>
      <point x="112" y="62"/>
      <point x="71" y="62" type="curve" smooth="yes"/>
      <point x="34" y="62" type="line"/>
      <point x="34" y="0" type="line"/>
    </contour>
    <contour>
      <point x="323.0" y="521.0" type="move" name="top"/>
    </contour>
    <contour>
      <point x="323.0" y="-11.0" type="move" name="bottom"/>
    </contour>
  </outline>
</glyph>
<glyph name="section" format="1">
  <advance width="426"/>
  <unicode hex="00A7"/>
  <outline>
    <contour>
      <point x="354" y="600" type="line"/>
      <point x="354" y="760" type="line"/>
      <point x="318" y="760" type="line"/>
      <point x="318" y="740" type="line"/>
      <point x="308" y="740" type="line"/>
      <point x="290" y="746"/>
      <point x="250" y="760"/>
      <point x="206" y="760" type="curve" smooth="yes"/>
      <point x="120" y="760"/>
      <point x="56" y="703"/>
      <point x="56" y="626" type="curve" smooth="yes"/>
      <point x="56" y="562"/>
      <point x="86" y="527"/>
      <point x="134" y="494" type="curve"/>
      <point x="134" y="484" type="line"/>
      <point x="91" y="462"/>
      <point x="56" y="426"/>
      <point x="56" y="376" type="curve" smooth="yes"/>
      <point x="56" y="292"/>
      <point x="108" y="257"/>
      <point x="183" y="214" type="curve" smooth="yes"/>
      <point x="242" y="181"/>
      <point x="304" y="157"/>
      <point x="304" y="96" type="curve" smooth="yes"/>
      <point x="304" y="52"/>
      <point x="275" y="28"/>
      <point x="228" y="28" type="curve" smooth="yes"/>
      <point x="143" y="28"/>
      <point x="90" y="91"/>
      <point x="90" y="160" type="curve" smooth="yes"/>
      <point x="90" y="182" type="line"/>
      <point x="54" y="182" type="line"/>
      <point x="54" y="0" type="line"/>
      <point x="90" y="0" type="line"/>
      <point x="90" y="28" type="line"/>
      <point x="100" y="28" type="line"/>
      <point x="116" y="18"/>
      <point x="158" y="-10"/>
      <point x="228" y="-10" type="curve" smooth="yes"/>
      <point x="324" y="-10"/>
      <point x="392" y="33"/>
      <point x="392" y="128" type="curve" smooth="yes"/>
      <point x="392" y="186"/>
      <point x="366" y="223"/>
      <point x="318" y="256" type="curve"/>
      <point x="318" y="266" type="line"/>
      <point x="359" y="288"/>
      <point x="392" y="321"/>
      <point x="392" y="378" type="curve" smooth="yes"/>
      <point x="392" y="468"/>
      <point x="330" y="508"/>
      <point x="223" y="562" type="curve" smooth="yes"/>
      <point x="164" y="593"/>
      <point x="136" y="614"/>
      <point x="136" y="656" type="curve" smooth="yes"/>
      <point x="136" y="699"/>
      <point x="163" y="722"/>
      <point x="212" y="722" type="curve" smooth="yes"/>
      <point x="274" y="722"/>
      <point x="318" y="682"/>
      <point x="318" y="634" type="curve" smooth="yes"/>
      <point x="318" y="600" type="line"/>
    </contour>
    <contour>
      <point x="230" y="298" type="curve" smooth="yes"/>
      <point x="174" y="338"/>
      <point x="128" y="364"/>
      <point x="128" y="406" type="curve"/>
      <point x="128" y="438"/>
      <point x="150" y="464"/>
      <point x="184" y="464" type="curve"/>
      <point x="196" y="464"/>
      <point x="206" y="462"/>
      <point x="218" y="454" type="curve" smooth="yes"/>
      <point x="274" y="416"/>
      <point x="320" y="388"/>
      <point x="320" y="346" type="curve" smooth="yes"/>
      <point x="320" y="314"/>
      <point x="298" y="288"/>
      <point x="264" y="288" type="curve" smooth="yes"/>
      <point x="252" y="288"/>
      <point x="242" y="290"/>
    </contour>
  </outline>
</glyph>
<glyph name="dieresis" format="1">
  <advance width="268"/>
  <unicode hex="00A8"/>
  <outline>
    <contour>
      <point x="-16" y="600" type="line"/>
      <point x="104" y="600" type="line"/>
      <point x="104" y="720" type="line"/>
      <point x="-16" y="720" type="line"/>
    </contour>
    <contour>
      <point x="164" y="600" type="line"/>
      <point x="284" y="600" type="line"/>
      <point x="284" y="720" type="line"/>
      <point x="164" y="720" type="line"/>
    </contour>
    <contour>
      <point x="134.0" y="520.0" type="move" name="_top"/>
    </contour>
  </outline>
</glyph>
<glyph name="copyright" format="1">
  <advance width="847"/>
  <unicode hex="00A9"/>
  <outline>
    <contour>
      <point x="44" y="375" type="curve" smooth="yes"/>
      <point x="44" y="155"/>
      <point x="203" y="-10"/>
      <point x="423" y="-10" type="curve" smooth="yes"/>
      <point x="643" y="-10"/>
      <point x="803" y="155"/>
      <point x="803" y="375" type="curve" smooth="yes"/>
      <point x="803" y="595"/>
      <point x="643" y="760"/>
      <point x="423" y="760" type="curve" smooth="yes"/>
      <point x="203" y="760"/>
      <point x="44" y="595"/>
    </contour>
    <contour>
      <point x="82" y="375" type="curve" smooth="yes"/>
      <point x="82" y="575"/>
      <point x="223" y="726"/>
      <point x="423" y="726" type="curve" smooth="yes"/>
      <point x="623" y="726"/>
      <point x="765" y="575"/>
      <point x="765" y="375" type="curve" smooth="yes"/>
      <point x="765" y="175"/>
      <point x="623" y="24"/>
      <point x="423" y="24" type="curve" smooth="yes"/>
      <point x="223" y="24"/>
      <point x="82" y="175"/>
    </contour>
    <contour>
      <point x="641" y="224" type="curve"/>
      <point x="622" y="242" type="line"/>
      <point x="586" y="192"/>
      <point x="537" y="167"/>
      <point x="461" y="167" type="curve"/>
      <point x="345" y="167"/>
      <point x="292" y="250"/>
      <point x="292" y="376" type="curve"/>
      <point x="292" y="496"/>
      <point x="331" y="595"/>
      <point x="448" y="595" type="curve"/>
      <point x="527" y="595"/>
      <point x="597" y="538"/>
      <point x="597" y="444" type="curve"/>
      <point x="597" y="428" type="line"/>
      <point x="622" y="428" type="line"/>
      <point x="622" y="622" type="line"/>
      <point x="622" y="622"/>
      <point x="597" y="622"/>
      <point x="597" y="622" type="curve"/>
      <point x="597" y="592" type="line"/>
      <point x="590" y="592" type="line"/>
      <point x="572" y="602"/>
      <point x="513" y="628"/>
      <point x="438" y="628" type="curve"/>
      <point x="276" y="628"/>
      <point x="172" y="518"/>
      <point x="172" y="366" type="curve"/>
      <point x="172" y="220"/>
      <point x="280" y="117"/>
      <point x="428" y="117" type="curve"/>
      <point x="529" y="117"/>
      <point x="594" y="161"/>
    </contour>
  </outline>
</glyph>
<glyph name="registered" format="1">
  <advance width="847"/>
  <unicode hex="00AE"/>
  <outline>
    <contour>
      <point x="44" y="375" type="curve" smooth="yes"/>
      <point x="44" y="155"/>
      <point x="203" y="-10"/>
      <point x="423" y="-10" type="curve" smooth="yes"/>
      <point x="643" y="-10"/>
      <point x="803" y="155"/>
      <point x="803" y="375" type="curve" smooth="yes"/>
      <point x="803" y="595"/>
      <point x="643" y="760"/>
      <point x="423" y="760" type="curve" smooth="yes"/>
      <point x="203" y="760"/>
      <point x="44" y="595"/>
    </contour>
    <contour>
      <point x="82" y="375" type="curve" smooth="yes"/>
      <point x="82" y="575"/>
      <point x="223" y="726"/>
      <point x="423" y="726" type="curve" smooth="yes"/>
      <point x="623" y="726"/>
      <point x="765" y="575"/>
      <point x="765" y="375" type="curve" smooth="yes"/>
      <point x="765" y="175"/>
      <point x="623" y="24"/>
      <point x="423" y="24" type="curve" smooth="yes"/>
      <point x="223" y="24"/>
      <point x="82" y="175"/>
    </contour>
    <contour>
      <point x="390" y="365" type="line"/>
      <point x="401" y="365" type="line"/>
      <point x="551" y="125" type="line"/>
      <point x="708" y="125" type="line"/>
      <point x="708" y="148" type="line"/>
      <point x="661" y="148" type="line"/>
      <point x="521" y="365" type="line"/>
      <point x="521" y="372" type="line"/>
      <point x="568" y="382"/>
      <point x="632" y="411"/>
      <point x="632" y="496" type="curve"/>
      <point x="632" y="582"/>
      <point x="549" y="625"/>
      <point x="435" y="625" type="curve" smooth="yes"/>
      <point x="214" y="625" type="line"/>
      <point x="214" y="603" type="line"/>
      <point x="274" y="603" type="line"/>
      <point x="281" y="596" type="line"/>
      <point x="281" y="154" type="line"/>
      <point x="274" y="148" type="line"/>
      <point x="214" y="148" type="line"/>
      <point x="214" y="125" type="line"/>
      <point x="462" y="125" type="line"/>
      <point x="462" y="148" type="line"/>
      <point x="397" y="148" type="line"/>
      <point x="390" y="154" type="line"/>
    </contour>
    <contour>
      <point x="390" y="589" type="line"/>
      <point x="465.0" y="589.0"/>
      <point x="511" y="564"/>
      <point x="511" y="498" type="curve" smooth="yes"/>
      <point x="511" y="422"/>
      <point x="442" y="388"/>
      <point x="390" y="388" type="curve"/>
    </contour>
  </outline>
</glyph>
<glyph name="degree" format="1">
  <advance width="380"/>
  <unicode hex="00B0"/>
  <outline>
    <contour>
      <point x="247" y="522"/>
      <point x="286" y="563"/>
      <point x="286" y="624" type="curve" smooth="yes"/>
      <point x="286" y="685"/>
      <point x="247" y="726"/>
      <point x="190" y="726" type="curve" smooth="yes"/>
      <point x="133" y="726"/>
      <point x="94" y="685"/>
      <point x="94" y="624" type="curve" smooth="yes"/>
      <point x="94" y="563"/>
      <point x="133" y="522"/>
      <point x="190" y="522" type="curve" smooth="yes"/>
    </contour>
    <contour>
      <point x="190" y="760" type="curve" smooth="yes"/>
      <point x="272" y="760"/>
      <point x="326" y="696"/>
      <point x="326" y="624" type="curve" smooth="yes"/>
      <point x="326" y="552"/>
      <point x="272" y="488"/>
      <point x="190" y="488" type="curve" smooth="yes"/>
      <point x="108" y="488"/>
      <point x="54" y="552"/>
      <point x="54" y="624" type="curve" smooth="yes"/>
      <point x="54" y="696"/>
      <point x="108" y="760"/>
    </contour>
  </outline>
</glyph>
<glyph name="acute" format="1">
  <advance width="268"/>
  <unicode hex="00B4"/>
  <outline>
    <contour>
      <point x="18" y="540" type="line"/>
      <point x="-6" y="554" type="line"/>
      <point x="158" y="750" type="line"/>
      <point x="284" y="696" type="line"/>
    </contour>
    <contour>
      <point x="134.0" y="520.0" type="move" name="_top"/>
    </contour>
  </outline>
</glyph>
<glyph name="paragraph" format="1">
  <advance width="536"/>
  <unicode hex="00B6"/>
  <outline>
    <contour>
      <point x="238" y="750" type="line"/>
      <point x="238" y="0" type="line"/>
      <point x="276" y="0" type="line"/>
      <point x="276" y="750" type="line"/>
    </contour>
    <contour>
      <point x="350" y="750" type="line"/>
      <point x="350" y="0" type="line"/>
      <point x="388" y="0" type="line"/>
      <point x="388" y="750" type="line"/>
    </contour>
    <contour>
      <point x="238" y="706" type="line"/>
      <point x="276" y="706" type="line"/>
      <point x="286" y="716" type="line"/>
      <point x="340" y="716" type="line"/>
      <point x="350" y="706" type="line"/>
      <point x="388" y="706" type="line"/>
      <point x="398" y="716" type="line"/>
      <point x="482" y="716" type="line"/>
      <point x="482" y="750" type="line"/>
      <point x="238" y="750" type="line"/>
    </contour>
    <contour>
      <point x="238" y="318" type="curve"/>
      <point x="238" y="750" type="line"/>
      <point x="96" y="750"/>
      <point x="14" y="654"/>
      <point x="14" y="534" type="curve" smooth="yes"/>
      <point x="14" y="414"/>
      <point x="96" y="318"/>
    </contour>
    <contour>
      <point x="228" y="34" type="line"/>
      <point x="138" y="34" type="line"/>
      <point x="138" y="0" type="line"/>
      <point x="482" y="0" type="line"/>
      <point x="482" y="34" type="line"/>
      <point x="398" y="34" type="line"/>
      <point x="388" y="44" type="line"/>
      <point x="350" y="44" type="line"/>
      <point x="340" y="34" type="line"/>
      <point x="286" y="34" type="line"/>
      <point x="276" y="44" type="line"/>
      <point x="238" y="44" type="line"/>
    </contour>
  </outline>
</glyph>
<glyph name="ordmasculine" format="1">
  <advance width="448"/>
  <unicode hex="00BA"/>
  <outline>
    <contour>
      <point x="234" y="409" type="curve"/>
      <point x="167" y="409"/>
      <point x="100" y="465"/>
      <point x="100" y="570" type="curve" smooth="yes"/>
      <point x="100" y="670"/>
      <point x="144" y="726"/>
      <point x="214" y="726" type="curve"/>
      <point x="281" y="726"/>
      <point x="348" y="670"/>
      <point x="348" y="565" type="curve" smooth="yes"/>
      <point x="348" y="465"/>
      <point x="304" y="409"/>
    </contour>
    <contour>
      <point x="224" y="375" type="curve"/>
      <point x="327" y="375"/>
      <point x="404" y="459"/>
      <point x="404" y="573" type="curve" smooth="yes"/>
      <point x="404" y="688"/>
      <point x="332" y="760"/>
      <point x="224" y="760" type="curve"/>
      <point x="120" y="760"/>
      <point x="44" y="676"/>
      <point x="44" y="562" type="curve"/>
      <point x="44" y="447"/>
      <point x="115" y="375"/>
    </contour>
  </outline>
</glyph>
<glyph name="questiondown" format="1">
  <advance width="488"/>
  <unicode hex="00BF"/>
  <outline>
    <contour>
      <point x="222" y="-250" type="curve"/>
      <point x="388" y="-250"/>
      <point x="466" y="-144"/>
      <point x="478" y="-56" type="curve"/>
      <point x="468" y="-46" type="line"/>
      <point x="342" y="-58" type="line"/>
      <point x="318" y="-144" type="line" smooth="yes"/>
      <point x="305" y="-190"/>
      <point x="287" y="-212"/>
      <point x="244" y="-212" type="curve"/>
      <point x="170" y="-212"/>
      <point x="140" y="-123"/>
      <point x="140" y="-16" type="curve"/>
      <point x="140" y="94"/>
      <point x="195" y="144"/>
      <point x="244" y="162" type="curve"/>
      <point x="254" y="172" type="line"/>
      <point x="254" y="306" type="line"/>
      <point x="214" y="306" type="line"/>
      <point x="214" y="184" type="line"/>
      <point x="119" y="154"/>
      <point x="-6" y="86"/>
      <point x="-6" y="-48" type="curve"/>
      <point x="-6" y="-176"/>
      <point x="94" y="-250"/>
    </contour>
    <contour>
      <point x="304" y="510" type="line"/>
      <point x="164" y="510" type="line"/>
      <point x="164" y="370" type="line"/>
      <point x="304" y="370" type="line"/>
    </contour>
  </outline>
</glyph>
<glyph name="Oslash" format="1">
  <advance width="789"/>
  <unicode hex="00D8"/>
  <outline>
    <contour>
      <point x="101" y="-65" type="line"/>
      <point x="147" y="-65" type="line"/>
      <point x="680" y="802" type="line"/>
      <point x="634" y="802" type="line"/>
    </contour>
    <component base="O"/>
  </outline>
</glyph>
<glyph name="germandbls" format="1">
  <advance width="618"/>
  <unicode hex="00DF"/>
  <outline>
    <contour>
      <point x="396" y="612" type="curve"/>
      <point x="396" y="557"/>
      <point x="374" y="508"/>
      <point x="350" y="468" type="curve" smooth="yes"/>
      <point x="332" y="438"/>
      <point x="308" y="402"/>
      <point x="308" y="345" type="curve"/>
      <point x="308" y="294"/>
      <point x="330" y="246"/>
      <point x="402" y="196" type="curve" smooth="yes"/>
      <point x="451" y="162"/>
      <point x="476" y="140"/>
      <point x="476" y="92" type="curve"/>
      <point x="476" y="54"/>
      <point x="453" y="28"/>
      <point x="410" y="28" type="curve" smooth="yes"/>
      <point x="341" y="28"/>
      <point x="332" y="81"/>
      <point x="332" y="150" type="curve" smooth="yes"/>
      <point x="332" y="172" type="line"/>
      <point x="296" y="172" type="line"/>
      <point x="296" y="-10" type="line"/>
      <point x="332" y="-10" type="line"/>
      <point x="332" y="8" type="line"/>
      <point x="342" y="8" type="line"/>
      <point x="358" y="0"/>
      <point x="392" y="-10"/>
      <point x="432" y="-10" type="curve"/>
      <point x="514" y="-10"/>
      <point x="594" y="35"/>
      <point x="594" y="142" type="curve"/>
      <point x="594" y="226"/>
      <point x="538" y="262"/>
      <point x="468" y="308" type="curve" smooth="yes"/>
      <point x="402" y="351"/>
      <point x="372" y="373"/>
      <point x="372" y="418" type="curve"/>
      <point x="372" y="453"/>
      <point x="392" y="472"/>
      <point x="424" y="496" type="curve" smooth="yes"/>
      <point x="465" y="526"/>
      <point x="514" y="560"/>
      <point x="514" y="632" type="curve"/>
      <point x="514" y="706"/>
      <point x="454" y="760"/>
      <point x="350" y="760" type="curve" smooth="yes"/>
      <point x="214" y="760"/>
      <point x="156" y="624"/>
      <point x="114" y="500" type="curve"/>
      <point x="34" y="500" type="line"/>
      <point x="34" y="460" type="line"/>
      <point x="114" y="460" type="line"/>
      <point x="114" y="44" type="line"/>
      <point x="104" y="34" type="line"/>
      <point x="34" y="34" type="line"/>
      <point x="34" y="0" type="line"/>
      <point x="238" y="0" type="line"/>
      <point x="238" y="602" type="line"/>
      <point x="238" y="666"/>
      <point x="251" y="712"/>
      <point x="317" y="712" type="curve" smooth="yes"/>
      <point x="383" y="712"/>
      <point x="396" y="666"/>
    </contour>
  </outline>
</glyph>
<glyph name="ae" format="1">
  <advance width="789"/>
  <unicode hex="00E6"/>
  <outline>
    <contour>
      <point x="284" y="380" type="curve" smooth="yes"/>
      <point x="284" y="310" type="line"/>
      <point x="146" y="250"/>
      <point x="36" y="210"/>
      <point x="36" y="100" type="curve" smooth="yes"/>
      <point x="36" y="32"/>
      <point x="84" y="-10"/>
      <point x="158" y="-10" type="curve" smooth="yes"/>
      <point x="258" y="-10"/>
      <point x="318" y="56"/>
      <point x="343" y="156" type="curve"/>
      <point x="353" y="156" type="line"/>
      <point x="382" y="26"/>
      <point x="466" y="-10"/>
      <point x="549" y="-10" type="curve"/>
      <point x="695" y="-10"/>
      <point x="745" y="128"/>
      <point x="753" y="200" type="curve"/>
      <point x="729" y="214" type="line"/>
      <point x="705" y="150"/>
      <point x="655" y="112"/>
      <point x="579" y="112" type="curve" smooth="yes"/>
      <point x="485" y="112"/>
      <point x="431" y="182"/>
      <point x="431" y="292" type="curve" smooth="yes"/>
      <point x="431" y="422"/>
      <point x="485" y="476"/>
      <point x="541" y="476" type="curve" smooth="yes"/>
      <point x="590" y="476"/>
      <point x="607" y="436"/>
      <point x="607" y="372" type="curve"/>
      <point x="597" y="362" type="line"/>
      <point x="407" y="356" type="line"/>
      <point x="407" y="320" type="line"/>
      <point x="745" y="320" type="line"/>
      <point x="745" y="476"/>
      <point x="643" y="520"/>
      <point x="555" y="520" type="curve" smooth="yes"/>
      <point x="481" y="520"/>
      <point x="432" y="480"/>
      <point x="410" y="445" type="curve"/>
      <point x="400" y="445" type="line"/>
      <point x="382" y="480"/>
      <point x="348" y="520"/>
      <point x="246" y="520" type="curve" smooth="yes"/>
      <point x="129" y="520"/>
      <point x="51" y="461"/>
      <point x="38" y="382" type="curve"/>
      <point x="48" y="372" type="line"/>
      <point x="174" y="384" type="line"/>
      <point x="190" y="440" type="line" smooth="yes"/>
      <point x="197" y="463"/>
      <point x="212" y="476"/>
      <point x="238" y="476" type="curve" smooth="yes"/>
      <point x="280" y="476"/>
      <point x="284" y="450"/>
    </contour>
    <contour>
      <point x="284" y="260" type="line"/>
      <point x="284" y="134" type="line"/>
      <point x="281" y="122"/>
      <point x="257" y="82"/>
      <point x="202" y="82" type="curve" smooth="yes"/>
      <point x="170" y="82"/>
      <point x="150" y="101"/>
      <point x="150" y="133" type="curve" smooth="yes"/>
      <point x="150" y="184"/>
      <point x="200" y="226"/>
      <point x="274" y="270" type="curve"/>
    </contour>
  </outline>
</glyph>
<glyph name="oslash" format="1">
  <advance width="561"/>
  <unicode hex="00F8"/>
  <outline>
    <contour>
      <point x="50" y="-54" type="line"/>
      <point x="93" y="-54" type="line"/>
      <point x="465" y="554" type="line"/>
      <point x="422" y="554" type="line"/>
    </contour>
    <component base="o" xOffset="-12"/>
  </outline>
</glyph>
<glyph name="dotlessi" format="1">
  <advance width="318"/>
  <unicode hex="0131"/>
  <outline>
    <contour>
      <point x="106" y="44" type="line"/>
      <point x="96" y="34" type="line"/>
      <point x="28" y="34" type="line"/>
      <point x="28" y="0" type="line"/>
      <point x="302" y="0" type="line"/>
      <point x="302" y="34" type="line"/>
      <point x="240" y="34" type="line"/>
      <point x="230" y="44" type="line"/>
    </contour>
    <contour>
      <point x="42" y="412" type="line"/>
      <point x="96" y="436" type="line" smooth="yes"/>
      <point x="106" y="426" type="line"/>
      <point x="106" y="0" type="line"/>
      <point x="230" y="0" type="line"/>
      <point x="230" y="510" type="line"/>
      <point x="220" y="520" type="line"/>
      <point x="26" y="446" type="line"/>
    </contour>
    <contour>
      <point x="160" y="540" type="move" name="top"/>
    </contour>
  </outline>
</glyph>
<glyph name="OE" format="1">
  <advance width="1082"/>
  <unicode hex="0152"/>
  <outline>
    <contour>
      <point x="514" y="706" type="line"/>
      <point x="514" y="45" type="line"/>
      <point x="503" y="34" type="line"/>
      <point x="433" y="34" type="line"/>
      <point x="289" y="34"/>
      <point x="214" y="210"/>
      <point x="214" y="420" type="curve" smooth="yes"/>
      <point x="214" y="620"/>
      <point x="274" y="716"/>
      <point x="414" y="716" type="curve"/>
      <point x="504" y="716" type="line"/>
    </contour>
    <contour>
      <point x="656" y="360" type="line"/>
      <point x="870" y="360" type="line"/>
      <point x="880" y="350" type="line"/>
      <point x="880" y="278" type="line"/>
      <point x="918" y="278" type="line"/>
      <point x="918" y="496" type="line"/>
      <point x="880" y="496" type="line"/>
      <point x="880" y="424" type="line"/>
      <point x="870" y="414" type="line"/>
      <point x="656" y="414" type="line"/>
      <point x="656" y="678" type="line"/>
      <point x="854" y="678" type="line" smooth="yes"/>
      <point x="940" y="678"/>
      <point x="962" y="656"/>
      <point x="962" y="570" type="curve" smooth="yes"/>
      <point x="962" y="540" type="line"/>
      <point x="1000" y="540" type="line"/>
      <point x="1000" y="750" type="line"/>
      <point x="414" y="750" type="line"/>
      <point x="207" y="750"/>
      <point x="54" y="592"/>
      <point x="54" y="364" type="curve"/>
      <point x="54" y="134"/>
      <point x="186" y="0"/>
      <point x="413" y="0" type="curve"/>
      <point x="1028" y="0" type="line"/>
      <point x="1028" y="220" type="line"/>
      <point x="990" y="220" type="line"/>
      <point x="990" y="180" type="line" smooth="yes"/>
      <point x="990" y="94"/>
      <point x="968" y="72"/>
      <point x="882" y="72" type="curve" smooth="yes"/>
      <point x="656" y="72" type="line"/>
    </contour>
  </outline>
</glyph>
<glyph name="oe" format="1">
  <advance width="888"/>
  <unicode hex="0153"/>
  <outline>
    <contour>
      <point x="36" y="255" type="curve" smooth="yes"/>
      <point x="36" y="99"/>
      <point x="134" y="-10"/>
      <point x="278" y="-10" type="curve" smooth="yes"/>
      <point x="376" y="-10"/>
      <point x="432" y="56"/>
      <point x="449" y="125" type="curve"/>
      <point x="459" y="125" type="line"/>
      <point x="500" y="28"/>
      <point x="562" y="-10"/>
      <point x="648" y="-10" type="curve" smooth="yes"/>
      <point x="794" y="-10"/>
      <point x="844" y="128"/>
      <point x="852" y="200" type="curve"/>
      <point x="828" y="214" type="line"/>
      <point x="812" y="172"/>
      <point x="774" y="112"/>
      <point x="678" y="112" type="curve" smooth="yes"/>
      <point x="564" y="112"/>
      <point x="530" y="212"/>
      <point x="530" y="292" type="curve" smooth="yes"/>
      <point x="530" y="422"/>
      <point x="584" y="476"/>
      <point x="638" y="476" type="curve"/>
      <point x="690" y="476"/>
      <point x="706" y="436"/>
      <point x="706" y="372" type="curve"/>
      <point x="696" y="362" type="line"/>
      <point x="506" y="356" type="line"/>
      <point x="506" y="320" type="line"/>
      <point x="844" y="320" type="line"/>
      <point x="844" y="464"/>
      <point x="756" y="520"/>
      <point x="654" y="520" type="curve" smooth="yes"/>
      <point x="560" y="520"/>
      <point x="510" y="464"/>
      <point x="480" y="393" type="curve"/>
      <point x="470" y="393" type="line"/>
      <point x="438" y="468"/>
      <point x="367" y="520"/>
      <point x="268" y="520" type="curve" smooth="yes"/>
      <point x="132" y="520"/>
      <point x="36" y="404"/>
    </contour>
    <contour>
      <point x="176" y="305" type="curve"/>
      <point x="176" y="389"/>
      <point x="194" y="472"/>
      <point x="260" y="472" type="curve"/>
      <point x="347" y="472"/>
      <point x="380" y="351"/>
      <point x="380" y="207" type="curve"/>
      <point x="380" y="121"/>
      <point x="362" y="38"/>
      <point x="296" y="38" type="curve"/>
      <point x="210" y="38"/>
      <point x="176" y="159"/>
    </contour>
  </outline>
</glyph>
<glyph name="circumflex" format="1">
  <advance width="268"/>
  <unicode hex="02C6"/>
  <outline>
    <contour>
      <point x="-2" y="540" type="line"/>
      <point x="108" y="632" type="line"/>
      <point x="118" y="632" type="line"/>
      <point x="270" y="540" type="line"/>
      <point x="294" y="554" type="line"/>
      <point x="150" y="750" type="line"/>
      <point x="118" y="750" type="line"/>
      <point x="-26" y="554" type="line"/>
    </contour>
    <contour>
      <point x="134.0" y="520.0" type="move" name="_top"/>
    </contour>
  </outline>
</glyph>
<glyph name="endash" format="1">
  <advance width="498"/>
  <unicode hex="2013"/>
  <outline>
    <contour>
      <point x="14" y="238" type="line"/>
      <point x="484" y="238" type="line"/>
      <point x="484" y="272" type="line"/>
      <point x="14" y="272" type="line"/>
    </contour>
  </outline>
</glyph>
<glyph name="quoteleft" format="1">
  <advance width="268"/>
  <unicode hex="2018"/>
  <outline>
    <contour>
      <point x="64" y="574" type="curve"/>
      <point x="64" y="454" type="line"/>
      <point x="204" y="454" type="line"/>
      <point x="204" y="594" type="line"/>
      <point x="130" y="594" type="line"/>
      <point x="120" y="604" type="line"/>
      <point x="126" y="650"/>
      <point x="152" y="684"/>
      <point x="206" y="726" type="curve"/>
      <point x="182" y="760" type="line"/>
      <point x="114" y="712"/>
      <point x="64" y="648"/>
    </contour>
  </outline>
</glyph>
<glyph name="quoteright" format="1">
  <advance width="268"/>
  <unicode hex="2019"/>
  <outline>
    <contour>
      <point x="204" y="630" type="curve"/>
      <point x="204" y="750" type="line"/>
      <point x="64" y="750" type="line"/>
      <point x="64" y="610" type="line"/>
      <point x="138" y="610" type="line"/>
      <point x="148" y="600" type="line"/>
      <point x="142" y="554"/>
      <point x="116" y="520"/>
      <point x="62" y="478" type="curve"/>
      <point x="86" y="444" type="line"/>
      <point x="154" y="492"/>
      <point x="204" y="556"/>
    </contour>
  </outline>
</glyph>
<glyph name="quotesinglbase" format="1">
  <advance width="268"/>
  <unicode hex="201A"/>
  <outline>
    <contour>
      <point x="204" y="20" type="curve"/>
      <point x="204" y="140" type="line"/>
      <point x="64" y="140" type="line"/>
      <point x="64" y="0" type="line"/>
      <point x="138" y="0" type="line"/>
      <point x="148" y="-10" type="line"/>
      <point x="142" y="-56"/>
      <point x="116" y="-90"/>
      <point x="62" y="-132" type="curve"/>
      <point x="86" y="-166" type="line"/>
      <point x="154" y="-118"/>
      <point x="204" y="-54"/>
    </contour>
  </outline>
</glyph>
<glyph name="dagger" format="1">
  <advance width="566"/>
  <unicode hex="2020"/>
  <outline>
    <contour>
      <point x="532" y="500" type="line"/>
      <point x="310" y="500" type="line"/>
      <point x="300" y="510" type="line"/>
      <point x="308" y="750" type="line"/>
      <point x="258" y="750" type="line"/>
      <point x="266" y="510" type="line" smooth="yes"/>
      <point x="256" y="500" type="line"/>
      <point x="34" y="500" type="line"/>
      <point x="34" y="466" type="line"/>
      <point x="256" y="466" type="line" smooth="yes"/>
      <point x="266" y="456" type="line"/>
      <point x="258" y="0" type="line"/>
      <point x="308" y="0" type="line"/>
      <point x="300" y="456" type="line" smooth="yes"/>
      <point x="310" y="466" type="line"/>
      <point x="532" y="466" type="line"/>
    </contour>
  </outline>
</glyph>
<glyph name="bullet" format="1">
  <advance width="377"/>
  <unicode hex="2022"/>
  <outline>
    <contour>
      <point x="189" y="168" type="curve" smooth="yes"/>
      <point x="269" y="168"/>
      <point x="333" y="232"/>
      <point x="333" y="313" type="curve" smooth="yes"/>
      <point x="333" y="393"/>
      <point x="269" y="457"/>
      <point x="189" y="457" type="curve" smooth="yes"/>
      <point x="108" y="457"/>
      <point x="44" y="393"/>
      <point x="44" y="313" type="curve" smooth="yes"/>
      <point x="44" y="232"/>
      <point x="108" y="168"/>
    </contour>
  </outline>
</glyph>
<glyph name="ellipsis" format="1">
  <advance width="668"/>
  <unicode hex="2026"/>
  <outline>
    <contour>
      <point x="54" y="0" type="line"/>
      <point x="194" y="0" type="line"/>
      <point x="194" y="140" type="line"/>
      <point x="54" y="140" type="line"/>
    </contour>
    <contour>
      <point x="274" y="0" type="line"/>
      <point x="414" y="0" type="line"/>
      <point x="414" y="140" type="line"/>
      <point x="274" y="140" type="line"/>
    </contour>
    <contour>
      <point x="494" y="0" type="line"/>
      <point x="634" y="0" type="line"/>
      <point x="634" y="140" type="line"/>
      <point x="494" y="140" type="line"/>
    </contour>
  </outline>
</glyph>
<glyph name="trademark" format="1">
  <advance width="859"/>
  <unicode hex="2122"/>
  <outline>
    <contour>
      <point x="224" y="397" type="line"/>
      <point x="224" y="716" type="line"/>
      <point x="224" y="716"/>
      <point x="172" y="716"/>
      <point x="172" y="716" type="curve"/>
      <point x="172" y="397" type="line"/>
    </contour>
    <contour>
      <point x="224" y="397" type="line"/>
      <point x="172" y="397" type="line"/>
      <point x="167" y="392" type="line"/>
      <point x="122" y="392" type="line"/>
      <point x="122" y="375" type="line"/>
      <point x="122" y="375"/>
      <point x="274" y="375"/>
      <point x="274" y="375" type="curve"/>
      <point x="274" y="392" type="line"/>
      <point x="229" y="392" type="line"/>
    </contour>
    <contour>
      <point x="53" y="662" type="line" smooth="yes"/>
      <point x="53" y="705"/>
      <point x="64" y="716"/>
      <point x="107" y="716" type="curve" smooth="yes"/>
      <point x="319" y="716" type="line" smooth="yes"/>
      <point x="362" y="716"/>
      <point x="373" y="705"/>
      <point x="373" y="662" type="curve" smooth="yes"/>
      <point x="373" y="642" type="line"/>
      <point x="392" y="642" type="line"/>
      <point x="392" y="750" type="line"/>
      <point x="34" y="750" type="line"/>
      <point x="34" y="642" type="line"/>
      <point x="53" y="642" type="line"/>
    </contour>
    <contour>
      <point x="703" y="750" type="line"/>
      <point x="703" y="677" type="line"/>
      <point x="697" y="677" type="line"/>
      <point x="557" y="370" type="line"/>
      <point x="546" y="370" type="line"/>
      <point x="409" y="682" type="line"/>
      <point x="404" y="682" type="line"/>
      <point x="404" y="750" type="line"/>
      <point x="434" y="750" type="line"/>
      <point x="562" y="458" type="line"/>
      <point x="568" y="458" type="line"/>
      <point x="698" y="750" type="line"/>
    </contour>
    <contour>
      <point x="404" y="750" type="line"/>
      <point x="323" y="750" type="line"/>
      <point x="323" y="733" type="line"/>
      <point x="368" y="733" type="line"/>
      <point x="373" y="728" type="line"/>
      <point x="373" y="397" type="line"/>
      <point x="368" y="392" type="line"/>
      <point x="323" y="392" type="line"/>
      <point x="323" y="375" type="line"/>
      <point x="456" y="375" type="line"/>
      <point x="456" y="392" type="line"/>
      <point x="409" y="392" type="line"/>
      <point x="404" y="397" type="line"/>
    </contour>
    <contour>
      <point x="703" y="750" type="line"/>
      <point x="805" y="750" type="line"/>
      <point x="805" y="733" type="line"/>
      <point x="760" y="733" type="line"/>
      <point x="755" y="727" type="line"/>
      <point x="755" y="397" type="line"/>
      <point x="760" y="392" type="line"/>
      <point x="805" y="392" type="line"/>
      <point x="805" y="375" type="line"/>
      <point x="650" y="375" type="line"/>
      <point x="650" y="392" type="line"/>
      <point x="697" y="392" type="line"/>
      <point x="703" y="397" type="line"/>
    </contour>
  </outline>
</glyph>
<glyph name="fi" format="1">
  <advance width="666"/>
  <unicode hex="FB01"/>
  <outline>
    <contour>
      <point x="446" y="44" type="line"/>
      <point x="436" y="34" type="line"/>
      <point x="368" y="34" type="line"/>
      <point x="368" y="0" type="line"/>
      <point x="642" y="0" type="line"/>
      <point x="642" y="34" type="line"/>
      <point x="580" y="34" type="line"/>
      <point x="570" y="44" type="line"/>
    </contour>
    <contour>
      <point x="350" y="470" type="line"/>
      <point x="436" y="470" type="line" smooth="yes"/>
      <point x="446" y="460" type="line"/>
      <point x="446" y="0" type="line"/>
      <point x="570" y="0" type="line"/>
      <point x="570" y="510" type="line"/>
      <point x="560" y="520" type="line"/>
      <point x="500" y="512"/>
      <point x="412" y="510"/>
      <point x="350" y="510" type="curve"/>
    </contour>
    <contour>
      <point x="34" y="470" type="line"/>
      <point x="374" y="470" type="line"/>
      <point x="374" y="510" type="line"/>
      <point x="34" y="510" type="line"/>
    </contour>
    <contour>
      <point x="480" y="660" type="line"/>
      <point x="496" y="750" type="line"/>
      <point x="486" y="760" type="line"/>
      <point x="328" y="756" type="line" smooth="yes"/>
      <point x="230" y="752"/>
      <point x="174" y="632"/>
      <point x="114" y="510" type="curve"/>
      <point x="114" y="38" type="line"/>
      <point x="238" y="38" type="line"/>
      <point x="238" y="510" type="line"/>
      <point x="230" y="598" type="line" smooth="yes"/>
      <point x="226" y="638"/>
      <point x="240" y="660"/>
      <point x="290" y="660" type="curve" smooth="yes"/>
    </contour>
    <contour>
      <point x="114" y="44" type="line"/>
      <point x="104" y="34" type="line"/>
      <point x="34" y="34" type="line"/>
      <point x="34" y="0" type="line"/>
      <point x="332" y="0" type="line"/>
      <point x="332" y="34" type="line"/>
      <point x="248" y="34" type="line"/>
      <point x="238" y="44" type="line"/>
    </contour>
  </outline>
</glyph>
<glyph name="fl" format="1">
  <advance width="706"/>
  <unicode hex="FB02"/>
  <outline>
    <contour>
      <point x="34" y="470" type="line"/>
      <point x="374" y="470" type="line"/>
      <point x="374" y="510" type="line"/>
      <point x="34" y="510" type="line"/>
    </contour>
    <contour>
      <point x="114" y="44" type="line"/>
      <point x="104" y="34" type="line"/>
      <point x="34" y="34" type="line"/>
      <point x="34" y="0" type="line"/>
      <point x="332" y="0" type="line"/>
      <point x="332" y="34" type="line"/>
      <point x="248" y="34" type="line"/>
      <point x="238" y="44" type="line"/>
    </contour>
    <contour>
      <point x="476" y="44" type="line"/>
      <point x="466" y="34" type="line"/>
      <point x="398" y="34" type="line"/>
      <point x="398" y="0" type="line"/>
      <point x="672" y="0" type="line"/>
      <point x="672" y="34" type="line"/>
      <point x="610" y="34" type="line"/>
      <point x="600" y="44" type="line"/>
    </contour>
    <contour>
      <point x="590" y="760" type="line"/>
      <point x="328" y="756" type="line" smooth="yes"/>
      <point x="230" y="755"/>
      <point x="174" y="632"/>
      <point x="114" y="510" type="curve"/>
      <point x="114" y="38" type="line"/>
      <point x="238" y="38" type="line"/>
      <point x="238" y="510" type="line"/>
      <point x="226" y="590" type="line" smooth="yes"/>
      <point x="220" y="630"/>
      <point x="240" y="668"/>
      <point x="290" y="668" type="curve" smooth="yes"/>
      <point x="466" y="668" type="line" smooth="yes"/>
      <point x="476" y="658" type="line"/>
      <point x="476" y="0" type="line"/>
      <point x="600" y="0" type="line"/>
      <point x="600" y="750" type="line"/>
    </contour>
  </outline>
</glyph>
<glyph name="Th" format="1">
  <advance width="1150"/>
  <outline>
    <contour>
      <point x="652" y="44" type="line"/>
      <point x="642" y="34" type="line"/>
      <point x="574" y="34" type="line"/>
      <point x="574" y="0" type="line"/>
      <point x="828" y="0" type="line"/>
      <point x="828" y="34" type="line"/>
      <point x="786" y="34" type="line"/>
      <point x="776" y="44" type="line"/>
      <point x="776" y="380" type="line"/>
      <point x="790" y="404"/>
      <point x="806" y="438"/>
      <point x="864" y="438" type="curve" smooth="yes"/>
      <point x="904" y="438"/>
      <point x="930" y="418"/>
      <point x="930" y="364" type="curve" smooth="yes"/>
      <point x="930" y="44" type="line"/>
      <point x="920" y="34" type="line"/>
      <point x="878" y="34" type="line"/>
      <point x="878" y="0" type="line"/>
      <point x="1126" y="0" type="line"/>
      <point x="1126" y="34" type="line"/>
      <point x="1064" y="34" type="line"/>
      <point x="1054" y="44" type="line"/>
      <point x="1054" y="380" type="line" smooth="yes"/>
      <point x="1054" y="476"/>
      <point x="994" y="520"/>
      <point x="920" y="520" type="curve" smooth="yes"/>
      <point x="844" y="520"/>
      <point x="810" y="472"/>
      <point x="786" y="434" type="curve"/>
      <point x="776" y="434" type="line"/>
      <point x="776" y="750" type="line"/>
      <point x="652" y="750" type="line"/>
    </contour>
    <contour>
      <point x="413" y="44" type="line"/>
      <point x="413" y="678" type="line"/>
      <point x="413" y="678"/>
      <point x="271" y="678"/>
      <point x="271" y="678" type="curve"/>
      <point x="271" y="44" type="line"/>
    </contour>
    <contour>
      <point x="411" y="44" type="line"/>
      <point x="269" y="44" type="line"/>
      <point x="259" y="34" type="line"/>
      <point x="174" y="34" type="line"/>
      <point x="174" y="0" type="line"/>
      <point x="174" y="0"/>
      <point x="506" y="0"/>
      <point x="506" y="0" type="curve"/>
      <point x="506" y="34" type="line"/>
      <point x="421" y="34" type="line"/>
    </contour>
    <contour>
      <point x="52" y="570" type="line" smooth="yes"/>
      <point x="52" y="656"/>
      <point x="74" y="678"/>
      <point x="160" y="678" type="curve" smooth="yes"/>
      <point x="524" y="678" type="line" smooth="yes"/>
      <point x="610" y="678"/>
      <point x="652" y="656"/>
      <point x="652" y="570" type="curve" smooth="yes"/>
      <point x="652" y="540" type="line"/>
      <point x="690" y="540" type="line"/>
      <point x="690" y="750" type="line"/>
      <point x="14" y="750" type="line"/>
      <point x="14" y="540" type="line"/>
      <point x="52" y="540" type="line"/>
    </contour>
  </outline>
</glyph>
<glyph name="guillemotleft" format="1">
  <advance width="578"/>
  <outline>
    <contour>
      <point x="284" y="0" type="line"/>
      <point x="304" y="19" type="line"/>
      <point x="154" y="245" type="line"/>
      <point x="154" y="255" type="line"/>
      <point x="304" y="480" type="line"/>
      <point x="284" y="500" type="line"/>
      <point x="4" y="255" type="line"/>
      <point x="4" y="245" type="line"/>
    </contour>
    <contour>
      <point x="524" y="0" type="line"/>
      <point x="544" y="19" type="line"/>
      <point x="394" y="245" type="line"/>
      <point x="394" y="255" type="line"/>
      <point x="544" y="480" type="line"/>
      <point x="524" y="500" type="line"/>
      <point x="244" y="255" type="line"/>
      <point x="244" y="245" type="line"/>
    </contour>
  </outline>
</glyph>
<glyph name="velvetyne" format="1">
  <advance width="1279"/>
  <outline>
    <contour>
      <point x="633" y="496" type="line"/>
      <point x="565" y="496" type="line"/>
      <point x="467" y="234" type="line"/>
      <point x="457" y="234" type="line"/>
      <point x="278" y="706" type="line"/>
      <point x="124" y="706" type="line"/>
      <point x="408" y="-10" type="line"/>
      <point x="430" y="-10" type="line"/>
    </contour>
    <contour>
      <point x="565" y="496" type="line"/>
      <point x="633" y="496" type="line"/>
      <point x="643" y="506" type="line"/>
      <point x="682" y="506" type="line"/>
      <point x="682" y="540" type="line"/>
      <point x="682" y="540"/>
      <point x="473" y="540"/>
      <point x="473" y="540" type="curve"/>
      <point x="473" y="506" type="line"/>
      <point x="555" y="506" type="line"/>
    </contour>
    <contour>
      <point x="124" y="706" type="line"/>
      <point x="278" y="706" type="line"/>
      <point x="288" y="716" type="line"/>
      <point x="362" y="716" type="line"/>
      <point x="362" y="750" type="line"/>
      <point x="362" y="750"/>
      <point x="54" y="750"/>
      <point x="54" y="750" type="curve"/>
      <point x="54" y="716" type="line"/>
      <point x="114" y="716" type="line"/>
    </contour>
    <contour>
      <point x="854" y="44" type="line"/>
      <point x="712" y="44" type="line"/>
      <point x="702" y="34" type="line"/>
      <point x="617" y="34" type="line"/>
      <point x="617" y="0" type="line"/>
      <point x="617" y="0"/>
      <point x="949" y="0"/>
      <point x="949" y="0" type="curve"/>
      <point x="949" y="34" type="line"/>
      <point x="864" y="34" type="line"/>
    </contour>
    <contour>
      <point x="430" y="570" type="line" smooth="yes"/>
      <point x="430" y="656"/>
      <point x="452" y="678"/>
      <point x="538" y="678" type="curve"/>
      <point x="712" y="678" type="line"/>
      <point x="712" y="44" type="line"/>
      <point x="854" y="44" type="line"/>
      <point x="854" y="350" type="line"/>
      <point x="1105" y="350" type="line"/>
      <point x="1115" y="340" type="line"/>
      <point x="1115" y="268" type="line"/>
      <point x="1153" y="268" type="line"/>
      <point x="1153" y="486" type="line"/>
      <point x="1115" y="486" type="line"/>
      <point x="1115" y="414" type="line"/>
      <point x="1105" y="404" type="line"/>
      <point x="854" y="404" type="line"/>
      <point x="854" y="678" type="line"/>
      <point x="1119" y="678" type="line" smooth="yes"/>
      <point x="1205" y="678"/>
      <point x="1227" y="656"/>
      <point x="1227" y="570" type="curve"/>
      <point x="1227" y="540" type="line"/>
      <point x="1265" y="540" type="line"/>
      <point x="1265" y="750" type="line"/>
      <point x="392" y="750" type="line"/>
      <point x="392" y="540" type="line"/>
      <point x="430" y="540" type="line"/>
    </contour>
  </outline>
</glyph>
